<svg width="635" height="489" viewBox="0 0 635 489" fill="none" xmlns="http://www.w3.org/2000/svg">
<mask id="mask0_166_5995" style="mask-type:luminance" maskUnits="userSpaceOnUse" x="0" y="0" width="520" height="489">
<path d="M519.542 0H0V488.816H519.542V0Z" fill="white"/>
</mask>
<g mask="url(#mask0_166_5995)">
<path d="M8.33298 4.34668H-134.329C-138.948 4.34668 -142.693 8.092 -142.693 12.7121V59.7425C-142.693 64.3626 -138.948 68.1079 -134.329 68.1079H8.33298C12.9527 68.1079 16.6978 64.3626 16.6978 59.7425V12.7121C16.6978 8.092 12.9527 4.34668 8.33298 4.34668Z" fill="#5FA8AE"/>
<path d="M419.528 306.654H276.867C272.247 306.654 268.502 310.4 268.502 315.02V362.05C268.502 366.67 272.247 370.416 276.867 370.416H419.528C424.148 370.416 427.893 366.67 427.893 362.05V315.02C427.893 310.4 424.148 306.654 419.528 306.654Z" fill="#F26261"/>
<path d="M330.709 332.01V333.258H325.602V337.218H329.748V338.466H325.602V343.756H324.071V332.014H330.709V332.01Z" fill="white"/>
<path d="M332.728 336.616C333.111 335.901 333.635 335.35 334.305 334.958C334.974 334.566 335.717 334.37 336.537 334.37C337.357 334.37 338.05 334.543 338.642 334.894C339.239 335.24 339.681 335.682 339.972 336.206V334.52H341.521V343.752H339.972V342.034C339.667 342.571 339.216 343.018 338.615 343.373C338.013 343.729 337.316 343.906 336.519 343.906C335.722 343.906 334.956 343.706 334.296 343.301C333.63 342.895 333.111 342.33 332.728 341.596C332.346 340.867 332.154 340.034 332.154 339.104C332.154 338.175 332.346 337.332 332.728 336.621V336.616ZM339.553 337.3C339.271 336.785 338.893 336.389 338.414 336.111C337.936 335.837 337.412 335.696 336.838 335.696C336.264 335.696 335.744 335.833 335.271 336.101C334.797 336.37 334.423 336.767 334.141 337.282C333.858 337.796 333.722 338.402 333.722 339.1C333.722 339.797 333.863 340.421 334.141 340.945C334.423 341.469 334.797 341.865 335.271 342.143C335.744 342.417 336.264 342.558 336.838 342.558C337.412 342.558 337.936 342.421 338.414 342.143C338.893 341.87 339.271 341.469 339.553 340.945C339.836 340.421 339.972 339.815 339.972 339.118C339.972 338.421 339.831 337.815 339.553 337.3Z" fill="white"/>
<path d="M344.336 332.716C344.136 332.516 344.031 332.265 344.031 331.974C344.031 331.682 344.131 331.436 344.336 331.231C344.537 331.031 344.788 330.926 345.079 330.926C345.371 330.926 345.598 331.026 345.794 331.231C345.99 331.432 346.091 331.682 346.091 331.974C346.091 332.265 345.99 332.511 345.794 332.716C345.598 332.917 345.357 333.022 345.079 333.022C344.801 333.022 344.541 332.921 344.336 332.716ZM345.822 334.521V343.752H344.291V334.521H345.822Z" fill="white"/>
<path d="M350.132 331.286V343.752H348.602V331.286H350.132Z" fill="white"/>
<path d="M361.285 339.711H353.904C353.959 340.622 354.273 341.333 354.838 341.843C355.408 342.353 356.091 342.609 356.902 342.609C357.563 342.609 358.118 342.454 358.56 342.144C359.002 341.834 359.317 341.424 359.494 340.905H361.144C360.898 341.793 360.401 342.513 359.663 343.069C358.92 343.625 358 343.903 356.902 343.903C356.027 343.903 355.244 343.707 354.551 343.315C353.859 342.923 353.316 342.363 352.925 341.638C352.533 340.914 352.337 340.075 352.337 339.118C352.337 338.162 352.528 337.328 352.911 336.608C353.294 335.888 353.827 335.337 354.519 334.949C355.212 334.562 356.004 334.366 356.902 334.366C357.8 334.366 358.551 334.558 359.226 334.94C359.9 335.323 360.419 335.847 360.784 336.517C361.148 337.187 361.33 337.938 361.33 338.781C361.33 339.073 361.312 339.383 361.28 339.706L361.285 339.711ZM359.362 336.954C359.103 336.535 358.752 336.211 358.31 335.993C357.868 335.774 357.376 335.665 356.834 335.665C356.059 335.665 355.399 335.911 354.856 336.407C354.31 336.9 354 337.588 353.922 338.462H359.75C359.75 337.879 359.622 337.378 359.362 336.954Z" fill="white"/>
<path d="M363.526 336.617C363.909 335.902 364.433 335.351 365.103 334.959C365.772 334.567 366.519 334.371 367.353 334.371C368.073 334.371 368.738 334.535 369.358 334.868C369.977 335.2 370.447 335.633 370.775 336.175V331.291H372.324V343.757H370.775V342.021C370.469 342.572 370.023 343.024 369.426 343.379C368.829 343.734 368.132 343.912 367.335 343.912C366.538 343.912 365.772 343.712 365.103 343.306C364.433 342.901 363.909 342.336 363.526 341.602C363.144 340.873 362.952 340.039 362.952 339.11C362.952 338.18 363.144 337.337 363.526 336.626V336.617ZM370.347 337.301C370.064 336.786 369.686 336.39 369.208 336.112C368.729 335.838 368.205 335.697 367.631 335.697C367.057 335.697 366.538 335.834 366.064 336.102C365.59 336.371 365.216 336.768 364.934 337.283C364.651 337.797 364.515 338.403 364.515 339.101C364.515 339.798 364.656 340.422 364.934 340.946C365.216 341.47 365.59 341.866 366.064 342.144C366.538 342.418 367.057 342.559 367.631 342.559C368.205 342.559 368.729 342.422 369.208 342.144C369.686 341.871 370.064 341.47 370.347 340.946C370.629 340.422 370.766 339.816 370.766 339.119C370.766 338.422 370.624 337.816 370.347 337.301Z" fill="white"/>
<path d="M-179.646 138.053H30.4892" stroke="#E44D3B" stroke-width="2.05" stroke-miterlimit="10" stroke-dasharray="10.14 10.14"/>
<path d="M32.7988 138.053H35.1361V140.395" stroke="#E44D3B" stroke-width="2.05" stroke-miterlimit="10"/>
<path d="M35.1357 145.17V333.788" stroke="#E44D3B" stroke-width="2.05" stroke-miterlimit="10" stroke-dasharray="10.48 10.48"/>
<path d="M35.1357 336.176V338.518" stroke="#E44D3B" stroke-width="2.05" stroke-miterlimit="10"/>
<path d="M16.6211 35.9229H18.9629" stroke="#E44D3B" stroke-width="2.05" stroke-miterlimit="10"/>
<path d="M23.5605 35.9229H131.601" stroke="#E44D3B" stroke-width="2.05" stroke-miterlimit="10" stroke-dasharray="10.09 10.09"/>
<path d="M133.901 35.9229H136.239V38.2603" stroke="#E44D3B" stroke-width="2.05" stroke-miterlimit="10"/>
<path d="M136.238 43.0078V334.827" stroke="#E44D3B" stroke-width="2.05" stroke-miterlimit="10" stroke-dasharray="10.41 10.41"/>
<path d="M136.238 337.196V339.538" stroke="#E44D3B" stroke-width="2.05" stroke-miterlimit="10"/>
<path d="M235.298 -56.125V334.858" stroke="#E44D3B" stroke-width="2.05" stroke-miterlimit="10" stroke-dasharray="10.28 10.28"/>
<path d="M235.298 337.195V339.537" stroke="#E44D3B" stroke-width="2.05" stroke-miterlimit="10"/>
<path d="M20.5479 35.7766H30.0425C32.3114 35.7766 34.152 33.9359 34.152 31.6668V-58.5347C34.152 -60.8038 35.9926 -62.6445 38.2615 -62.6445H51.7563" stroke="#B3CB78" stroke-width="1.96" stroke-miterlimit="10"/>
<path d="M267.391 339.584H-580.556" stroke="#E44D3B" stroke-width="2.05" stroke-miterlimit="10" stroke-dasharray="10.27 10.27"/>
<path d="M265.636 122.829H208.003V154.268H265.636V122.829Z" fill="#ED625F"/>
<path d="M224.077 133.468H218.163V137.309C218.423 136.949 218.806 136.653 219.307 136.425C219.812 136.197 220.355 136.079 220.942 136.079C221.876 136.079 222.633 136.27 223.216 136.662C223.799 137.049 224.218 137.551 224.469 138.161C224.719 138.772 224.847 139.423 224.847 140.107C224.847 140.913 224.696 141.638 224.391 142.28C224.086 142.923 223.626 143.424 223.002 143.797C222.377 144.171 221.608 144.353 220.687 144.353C219.507 144.353 218.555 144.048 217.822 143.442C217.093 142.836 216.646 142.025 216.491 141.013H217.99C218.136 141.656 218.446 142.153 218.915 142.512C219.389 142.872 219.981 143.05 220.701 143.05C221.589 143.05 222.254 142.786 222.706 142.248C223.157 141.715 223.38 141.009 223.38 140.134C223.38 139.259 223.157 138.58 222.706 138.102C222.254 137.623 221.594 137.387 220.719 137.387C220.122 137.387 219.603 137.528 219.161 137.815C218.719 138.102 218.396 138.494 218.191 138.986H216.742V132.11H224.072V133.459L224.077 133.468Z" fill="white"/>
<path d="M227.412 133.054C227.872 132.598 228.46 132.37 229.18 132.37C229.9 132.37 230.488 132.598 230.948 133.054C231.408 133.509 231.64 134.12 231.64 134.881C231.64 135.642 231.408 136.27 230.948 136.726C230.488 137.182 229.895 137.409 229.18 137.409C228.465 137.409 227.872 137.182 227.412 136.726C226.952 136.27 226.72 135.655 226.72 134.881C226.72 134.106 226.948 133.509 227.412 133.054ZM228.278 133.71C228.059 133.974 227.95 134.366 227.95 134.881C227.95 135.396 228.059 135.792 228.278 136.061C228.497 136.33 228.797 136.466 229.18 136.466C229.563 136.466 229.863 136.33 230.091 136.052C230.314 135.778 230.428 135.386 230.428 134.881C230.428 134.375 230.314 133.974 230.091 133.71C229.868 133.445 229.563 133.313 229.18 133.313C228.797 133.313 228.497 133.445 228.278 133.71ZM236.561 132.557L229.736 144.317H228.219L235.044 132.557H236.561ZM233.863 140.148C234.324 139.692 234.911 139.464 235.631 139.464C236.351 139.464 236.939 139.692 237.39 140.148C237.845 140.603 238.073 141.218 238.073 141.993C238.073 142.768 237.845 143.369 237.39 143.829C236.934 144.289 236.346 144.522 235.631 144.522C234.916 144.522 234.324 144.294 233.863 143.838C233.403 143.383 233.171 142.768 233.171 141.993C233.171 141.218 233.399 140.603 233.863 140.148ZM234.706 140.822C234.483 141.086 234.369 141.478 234.369 141.993C234.369 142.508 234.483 142.882 234.706 143.146C234.93 143.41 235.235 143.542 235.618 143.542C236 143.542 236.301 143.41 236.529 143.146C236.752 142.882 236.866 142.499 236.866 141.993C236.866 141.487 236.752 141.086 236.529 140.822C236.306 140.558 236 140.426 235.618 140.426C235.235 140.426 234.934 140.558 234.706 140.822Z" fill="white"/>
<path d="M252.087 142.622L245.699 136.234H258.474L252.087 142.622Z" fill="white"/>
<path d="M63.8109 221.388H6.17773V252.826H63.8109V221.388Z" fill="#ED625F"/>
<path d="M11.3037 232.091V230.692H14.4701V242.876H12.9211V232.091H11.3037Z" fill="white"/>
<path d="M18.2107 232.136C18.8394 231.052 19.942 230.51 21.5138 230.51C23.0856 230.51 24.1699 231.052 24.7986 232.136C25.4274 233.221 25.7417 234.729 25.7417 236.661C25.7417 238.593 25.4274 240.156 24.7986 241.244C24.1699 242.333 23.0719 242.88 21.5138 242.88C19.9556 242.88 18.8394 242.333 18.2107 241.244C17.582 240.156 17.2676 238.629 17.2676 236.661C17.2676 234.692 17.582 233.221 18.2107 232.136ZM24.0287 234.173C23.9011 233.494 23.6368 232.947 23.2359 232.533C22.835 232.118 22.261 231.909 21.5092 231.909C20.7575 231.909 20.1652 232.118 19.7642 232.533C19.3633 232.947 19.0991 233.494 18.9715 234.173C18.8439 234.852 18.7802 235.681 18.7802 236.661C18.7802 237.64 18.8439 238.52 18.9715 239.203C19.0991 239.887 19.3633 240.438 19.7642 240.853C20.1606 241.267 20.7438 241.477 21.5092 241.477C22.2746 241.477 22.8395 241.267 23.2359 240.853C23.6368 240.438 23.8966 239.887 24.0287 239.203C24.1563 238.52 24.22 237.672 24.22 236.661C24.22 235.649 24.1563 234.857 24.0287 234.173Z" fill="white"/>
<path d="M28.3653 231.612C28.8255 231.157 29.4132 230.929 30.133 230.929C30.8529 230.929 31.4406 231.157 31.9008 231.612C32.3609 232.068 32.5933 232.678 32.5933 233.439C32.5933 234.2 32.3609 234.829 31.9008 235.285C31.4406 235.74 30.8483 235.968 30.133 235.968C29.4177 235.968 28.8255 235.74 28.3653 235.285C27.9052 234.829 27.6729 234.214 27.6729 233.439C27.6729 232.665 27.9006 232.068 28.3653 231.612ZM29.2355 232.268C29.0168 232.533 28.9075 232.924 28.9075 233.439C28.9075 233.954 29.0168 234.35 29.2355 234.619C29.4542 234.888 29.7549 235.025 30.1376 235.025C30.5203 235.025 30.821 234.888 31.0488 234.61C31.272 234.337 31.3859 233.945 31.3859 233.439C31.3859 232.933 31.272 232.533 31.0488 232.268C30.8256 232.004 30.5203 231.872 30.1376 231.872C29.7549 231.872 29.4542 232.004 29.2355 232.268ZM37.5138 231.116L30.6889 242.875H29.1717L35.9966 231.116H37.5138ZM34.8212 238.706C35.2813 238.251 35.869 238.023 36.5889 238.023C37.3087 238.023 37.8965 238.251 38.3475 238.706C38.8031 239.162 39.0309 239.777 39.0309 240.552C39.0309 241.326 38.8031 241.928 38.3475 242.388C37.8919 242.848 37.3042 243.08 36.5889 243.08C35.8736 243.08 35.2813 242.853 34.8212 242.397C34.361 241.941 34.1286 241.326 34.1286 240.552C34.1286 239.777 34.3565 239.162 34.8212 238.706ZM35.664 239.381C35.4408 239.645 35.3269 240.037 35.3269 240.552C35.3269 241.067 35.4408 241.44 35.664 241.704C35.8873 241.969 36.1925 242.101 36.5752 242.101C36.9579 242.101 37.2586 241.969 37.4864 241.704C37.7096 241.44 37.8235 241.057 37.8235 240.552C37.8235 240.046 37.7096 239.645 37.4864 239.381C37.2632 239.116 36.9579 238.984 36.5752 238.984C36.1925 238.984 35.8918 239.116 35.664 239.381Z" fill="white"/>
<path d="M50.2661 241.18L43.874 234.792H56.6536L50.2661 241.18Z" fill="white"/>
<path d="M253.377 349.093V331.063L269.915 340.377L253.377 349.093Z" fill="#F26261"/>
</g>
<g filter="url(#filter0_d_166_5995)">
<path d="M581.139 218.23H273.409C269.62 218.23 266.548 221.303 266.548 225.092V281.258C266.548 285.048 269.62 288.12 273.409 288.12H581.139C584.928 288.12 588 285.048 588 281.258V225.092C588 221.303 584.928 218.23 581.139 218.23Z" fill="white"/>
</g>
<g filter="url(#filter1_d_166_5995)">
<path d="M577.585 302.868H276.963C272.081 302.868 268.124 306.826 268.124 311.707V411.19C268.124 416.072 272.081 420.03 276.963 420.03H577.585C582.466 420.03 586.423 416.072 586.423 411.19V311.707C586.423 306.826 582.466 302.868 577.585 302.868Z" fill="white"/>
</g>
<path d="M342.085 259.442H347.32V261.032H340.131V246.078H342.085V259.446V259.442Z" fill="black"/>
<path d="M349.68 246.976C349.42 246.721 349.293 246.406 349.293 246.033C349.293 245.659 349.42 245.345 349.68 245.089C349.94 244.83 350.25 244.702 350.623 244.702C350.997 244.702 351.284 244.83 351.534 245.089C351.785 245.345 351.908 245.664 351.908 246.033C351.908 246.402 351.781 246.721 351.534 246.976C351.284 247.235 350.979 247.363 350.623 247.363C350.268 247.363 349.935 247.235 349.68 246.976ZM351.566 249.272V261.032H349.612V249.272H351.566Z" fill="black"/>
<path d="M356.847 260.763C356.131 260.458 355.566 260.025 355.152 259.474C354.737 258.922 354.509 258.289 354.464 257.574H356.482C356.537 258.161 356.815 258.64 357.307 259.014C357.799 259.387 358.446 259.569 359.248 259.569C359.99 259.569 360.578 259.405 361.006 259.077C361.435 258.749 361.649 258.335 361.649 257.833C361.649 257.332 361.421 256.936 360.961 256.685C360.501 256.435 359.794 256.189 358.838 255.947C357.963 255.719 357.252 255.487 356.701 255.25C356.15 255.013 355.676 254.662 355.284 254.198C354.892 253.733 354.696 253.122 354.696 252.361C354.696 251.76 354.874 251.209 355.234 250.707C355.589 250.206 356.099 249.81 356.756 249.518C357.412 249.227 358.163 249.076 359.006 249.076C360.309 249.076 361.357 249.404 362.159 250.065C362.961 250.721 363.389 251.623 363.448 252.767H361.494C361.453 252.152 361.202 251.66 360.756 251.286C360.305 250.912 359.699 250.73 358.942 250.73C358.241 250.73 357.685 250.881 357.27 251.181C356.856 251.482 356.646 251.874 356.646 252.361C356.646 252.749 356.769 253.068 357.02 253.318C357.27 253.569 357.585 253.769 357.963 253.92C358.341 254.07 358.87 254.239 359.539 254.425C360.382 254.653 361.07 254.881 361.599 255.1C362.127 255.323 362.583 255.656 362.961 256.097C363.339 256.539 363.535 257.123 363.553 257.838C363.553 258.48 363.375 259.059 363.015 259.574C362.656 260.089 362.154 260.494 361.503 260.786C360.851 261.078 360.104 261.228 359.261 261.228C358.359 261.228 357.553 261.073 356.838 260.768L356.847 260.763Z" fill="black"/>
<path d="M368.901 250.881V257.811C368.901 258.385 369.024 258.786 369.266 259.023C369.507 259.26 369.931 259.378 370.532 259.378H371.972V261.032H370.213C369.125 261.032 368.309 260.781 367.767 260.28C367.225 259.779 366.951 258.959 366.951 257.811V250.881H365.43V249.272H366.951V246.311H368.906V249.272H371.972V250.881H368.906H368.901Z" fill="black"/>
<path d="M380.747 249.604C381.403 248.438 382.301 247.527 383.44 246.871C384.579 246.214 385.841 245.882 387.226 245.882C388.857 245.882 390.279 246.274 391.495 247.062C392.711 247.85 393.6 248.966 394.156 250.411H391.818C391.404 249.509 390.807 248.816 390.028 248.329C389.249 247.841 388.315 247.6 387.226 247.6C386.137 247.6 385.244 247.841 384.415 248.329C383.586 248.816 382.934 249.504 382.46 250.397C381.987 251.29 381.754 252.338 381.754 253.541C381.754 254.744 381.991 255.769 382.46 256.662C382.934 257.555 383.581 258.248 384.415 258.731C385.244 259.218 386.183 259.46 387.226 259.46C388.269 259.46 389.244 259.218 390.028 258.74C390.807 258.261 391.404 257.569 391.818 256.671H394.156C393.6 258.102 392.711 259.205 391.495 259.988C390.279 260.767 388.857 261.159 387.226 261.159C385.837 261.159 384.575 260.836 383.44 260.184C382.301 259.533 381.403 258.63 380.747 257.469C380.091 256.311 379.759 254.999 379.759 253.541C379.759 252.083 380.087 250.771 380.747 249.604Z" fill="black"/>
<path d="M400.689 249.614C401.327 249.24 402.101 249.058 403.017 249.058V251.076H402.502C400.315 251.076 399.217 252.265 399.217 254.639V261.032H397.263V249.272H399.217V251.181C399.559 250.507 400.051 249.987 400.689 249.614Z" fill="black"/>
<path d="M416.148 255.879H406.749C406.822 257.036 407.218 257.943 407.938 258.594C408.658 259.246 409.537 259.569 410.567 259.569C411.41 259.569 412.116 259.373 412.681 258.982C413.246 258.59 413.642 258.061 413.87 257.405H415.975C415.66 258.535 415.032 259.455 414.088 260.162C413.145 260.868 411.97 261.223 410.571 261.223C409.455 261.223 408.457 260.973 407.578 260.472C406.699 259.97 406.006 259.26 405.51 258.335C405.013 257.41 404.758 256.344 404.758 255.127C404.758 253.91 404.999 252.844 405.487 251.928C405.974 251.013 406.658 250.306 407.537 249.814C408.416 249.322 409.428 249.076 410.571 249.076C411.715 249.076 412.676 249.318 413.533 249.805C414.389 250.293 415.054 250.962 415.519 251.81C415.984 252.662 416.216 253.623 416.216 254.694C416.216 255.068 416.193 255.46 416.152 255.874L416.148 255.879ZM413.701 252.37C413.373 251.833 412.927 251.427 412.362 251.149C411.797 250.871 411.173 250.73 410.485 250.73C409.496 250.73 408.658 251.045 407.965 251.673C407.273 252.302 406.876 253.177 406.776 254.293H414.198C414.198 253.55 414.034 252.908 413.706 252.375L413.701 252.37Z" fill="black"/>
<path d="M419.004 251.942C419.492 251.035 420.162 250.329 421.009 249.828C421.861 249.327 422.809 249.076 423.852 249.076C424.895 249.076 425.774 249.299 426.535 249.741C427.292 250.183 427.857 250.744 428.23 251.414V249.268H430.203V261.027H428.23V258.84C427.843 259.528 427.269 260.093 426.504 260.544C425.738 260.996 424.85 261.219 423.834 261.219C422.818 261.219 421.847 260.959 421 260.444C420.152 259.929 419.492 259.209 419.004 258.275C418.517 257.346 418.275 256.289 418.275 255.1C418.275 253.91 418.517 252.844 419.004 251.933V251.942ZM427.693 252.812C427.333 252.156 426.854 251.65 426.244 251.3C425.638 250.949 424.968 250.776 424.239 250.776C423.51 250.776 422.845 250.949 422.244 251.291C421.642 251.632 421.164 252.133 420.804 252.794C420.444 253.45 420.266 254.225 420.266 255.113C420.266 256.002 420.444 256.799 420.804 257.464C421.159 258.13 421.642 258.635 422.244 258.986C422.845 259.337 423.51 259.51 424.239 259.51C424.968 259.51 425.638 259.337 426.244 258.986C426.85 258.635 427.333 258.13 427.693 257.464C428.048 256.799 428.23 256.025 428.23 255.136C428.23 254.248 428.052 253.478 427.693 252.817V252.812Z" fill="black"/>
<path d="M436.102 250.881V257.811C436.102 258.385 436.225 258.786 436.467 259.023C436.708 259.26 437.132 259.378 437.734 259.378H439.173V261.032H437.415C436.326 261.032 435.51 260.781 434.968 260.28C434.426 259.779 434.153 258.959 434.153 257.811V250.881H432.631V249.272H434.153V246.311H436.107V249.272H439.173V250.881H436.107H436.102Z" fill="black"/>
<path d="M452.409 255.879H443.01C443.082 257.036 443.479 257.943 444.199 258.594C444.918 259.246 445.798 259.569 446.827 259.569C447.67 259.569 448.377 259.373 448.941 258.982C449.506 258.59 449.903 258.061 450.131 257.405H452.235C451.921 258.535 451.292 259.455 450.349 260.162C449.406 260.868 448.231 261.223 446.832 261.223C445.716 261.223 444.718 260.973 443.839 260.472C442.959 259.97 442.267 259.26 441.77 258.335C441.274 257.41 441.019 256.344 441.019 255.127C441.019 253.91 441.26 252.844 441.748 251.928C442.235 251.013 442.918 250.306 443.798 249.814C444.677 249.322 445.688 249.076 446.832 249.076C447.976 249.076 448.937 249.318 449.793 249.805C450.65 250.293 451.315 250.962 451.78 251.81C452.245 252.662 452.477 253.623 452.477 254.694C452.477 255.068 452.454 255.46 452.413 255.874L452.409 255.879ZM449.962 252.37C449.634 251.833 449.187 251.427 448.622 251.149C448.058 250.871 447.433 250.73 446.745 250.73C445.757 250.73 444.918 251.045 444.226 251.673C443.533 252.302 443.137 253.177 443.037 254.293H450.459C450.459 253.55 450.295 252.908 449.967 252.375L449.962 252.37Z" fill="black"/>
<path d="M455.26 251.942C455.748 251.035 456.417 250.329 457.265 249.828C458.117 249.327 459.069 249.076 460.13 249.076C461.046 249.076 461.898 249.286 462.682 249.709C463.47 250.133 464.067 250.684 464.486 251.372V245.148H466.459V261.027H464.486V258.817C464.099 259.519 463.529 260.093 462.768 260.544C462.008 260.995 461.124 261.219 460.108 261.219C459.092 261.219 458.117 260.959 457.265 260.444C456.413 259.929 455.743 259.209 455.26 258.275C454.773 257.346 454.531 256.289 454.531 255.099C454.531 253.91 454.773 252.844 455.26 251.933V251.942ZM463.953 252.812C463.593 252.156 463.115 251.65 462.504 251.299C461.898 250.949 461.228 250.776 460.5 250.776C459.771 250.776 459.105 250.949 458.504 251.29C457.903 251.632 457.424 252.133 457.064 252.794C456.704 253.45 456.527 254.225 456.527 255.113C456.527 256.002 456.704 256.799 457.064 257.464C457.42 258.129 457.903 258.635 458.504 258.986C459.105 259.337 459.771 259.51 460.5 259.51C461.228 259.51 461.898 259.337 462.504 258.986C463.11 258.635 463.593 258.129 463.953 257.464C464.308 256.799 464.491 256.024 464.491 255.136C464.491 254.247 464.313 253.477 463.953 252.817V252.812Z" fill="black"/>
<path d="M414.299 386.153V390.76H419.319V392.241H414.299V396.988H419.916V398.474H412.499V384.668H419.916V386.153H414.299Z" fill="black"/>
<path d="M438.126 387.961C438.787 388.312 439.306 388.836 439.689 389.533C440.072 390.231 440.263 391.083 440.263 392.085V398.473H438.482V392.34C438.482 391.26 438.213 390.431 437.68 389.857C437.147 389.283 436.422 388.996 435.516 388.996C434.609 388.996 433.834 389.296 433.279 389.893C432.727 390.495 432.449 391.36 432.449 392.495V398.468H430.668V392.336C430.668 391.256 430.399 390.426 429.866 389.852C429.333 389.278 428.609 388.991 427.702 388.991C426.795 388.991 426.021 389.292 425.47 389.889C424.914 390.49 424.64 391.356 424.64 392.49V398.464H422.841V387.624H424.64V389.187C424.996 388.622 425.474 388.185 426.076 387.879C426.677 387.574 427.338 387.424 428.062 387.424C428.973 387.424 429.775 387.629 430.477 388.039C431.174 388.449 431.698 389.046 432.039 389.839C432.345 389.073 432.841 388.481 433.543 388.057C434.24 387.633 435.019 387.424 435.875 387.424C436.732 387.424 437.47 387.597 438.131 387.948L438.126 387.961Z" fill="black"/>
<path d="M443.407 390.099C443.854 389.26 444.473 388.613 445.257 388.149C446.04 387.684 446.915 387.456 447.876 387.456C448.838 387.456 449.649 387.661 450.35 388.071C451.047 388.481 451.571 388.996 451.913 389.616V387.638H453.731V398.478H451.913V396.459C451.558 397.093 451.025 397.617 450.323 398.031C449.617 398.446 448.797 398.655 447.863 398.655C446.929 398.655 446.031 398.419 445.252 397.945C444.473 397.471 443.863 396.806 443.412 395.949C442.961 395.092 442.737 394.117 442.737 393.024C442.737 391.93 442.961 390.946 443.412 390.108L443.407 390.099ZM451.416 390.901C451.088 390.295 450.642 389.83 450.082 389.506C449.521 389.183 448.906 389.023 448.232 389.023C447.558 389.023 446.947 389.183 446.391 389.497C445.835 389.812 445.393 390.276 445.065 390.882C444.737 391.488 444.573 392.199 444.573 393.019C444.573 393.839 444.737 394.573 445.065 395.184C445.393 395.794 445.835 396.263 446.391 396.587C446.942 396.91 447.558 397.07 448.232 397.07C448.906 397.07 449.521 396.91 450.082 396.587C450.642 396.263 451.088 395.794 451.416 395.184C451.745 394.568 451.909 393.853 451.909 393.038C451.909 392.222 451.745 391.507 451.416 390.901Z" fill="black"/>
<path d="M457.029 385.52C456.792 385.283 456.674 384.991 456.674 384.65C456.674 384.308 456.792 384.016 457.029 383.779C457.266 383.542 457.558 383.424 457.899 383.424C458.241 383.424 458.51 383.542 458.738 383.779C458.966 384.016 459.084 384.308 459.084 384.65C459.084 384.991 458.97 385.283 458.738 385.52C458.505 385.757 458.227 385.875 457.899 385.875C457.571 385.875 457.266 385.757 457.029 385.52ZM458.77 387.634V398.473H456.97V387.634H458.77Z" fill="black"/>
<path d="M463.832 383.838V398.473H462.032V383.838H463.832Z" fill="black"/>
<path d="M474.178 398.228C473.518 397.945 472.998 397.549 472.616 397.043C472.233 396.537 472.023 395.954 471.982 395.293H473.841C473.896 395.835 474.147 396.277 474.602 396.619C475.058 396.961 475.655 397.134 476.393 397.134C477.076 397.134 477.618 396.984 478.015 396.678C478.411 396.373 478.607 395.995 478.607 395.53C478.607 395.065 478.397 394.701 477.974 394.473C477.55 394.241 476.898 394.013 476.015 393.79C475.208 393.58 474.552 393.366 474.046 393.147C473.541 392.929 473.103 392.605 472.739 392.177C472.374 391.748 472.197 391.183 472.197 390.486C472.197 389.93 472.361 389.425 472.689 388.965C473.017 388.504 473.486 388.135 474.092 387.866C474.698 387.598 475.39 387.461 476.169 387.461C477.368 387.461 478.338 387.766 479.076 388.372C479.814 388.978 480.211 389.807 480.261 390.865H478.461C478.42 390.3 478.192 389.844 477.778 389.498C477.363 389.156 476.807 388.983 476.106 388.983C475.459 388.983 474.944 389.119 474.566 389.397C474.183 389.675 473.992 390.035 473.992 390.486C473.992 390.842 474.106 391.133 474.338 391.366C474.57 391.598 474.857 391.78 475.208 391.922C475.559 392.063 476.042 392.213 476.661 392.386C477.441 392.596 478.074 392.806 478.561 393.011C479.049 393.216 479.468 393.521 479.819 393.931C480.17 394.341 480.352 394.874 480.361 395.535C480.361 396.127 480.197 396.66 479.869 397.139C479.541 397.612 479.076 397.986 478.475 398.255C477.873 398.524 477.185 398.66 476.406 398.66C475.577 398.66 474.83 398.519 474.174 398.237L474.178 398.228Z" fill="black"/>
<path d="M492.921 393.726H484.26C484.324 394.792 484.693 395.626 485.358 396.227C486.023 396.828 486.829 397.129 487.782 397.129C488.561 397.129 489.208 396.947 489.732 396.587C490.251 396.227 490.62 395.739 490.83 395.133H492.766C492.474 396.177 491.896 397.02 491.025 397.676C490.155 398.327 489.076 398.655 487.782 398.655C486.752 398.655 485.832 398.423 485.025 397.963C484.214 397.503 483.577 396.847 483.116 395.995C482.656 395.143 482.424 394.158 482.424 393.038C482.424 391.917 482.647 390.932 483.098 390.09C483.549 389.247 484.178 388.595 484.989 388.14C485.8 387.684 486.734 387.456 487.786 387.456C488.839 387.456 489.723 387.679 490.515 388.13C491.308 388.577 491.914 389.197 492.342 389.98C492.77 390.764 492.985 391.652 492.985 392.641C492.985 392.983 492.966 393.347 492.925 393.73L492.921 393.726ZM490.666 390.495C490.36 390.003 489.95 389.625 489.431 389.37C488.911 389.115 488.333 388.982 487.7 388.982C486.788 388.982 486.014 389.274 485.376 389.853C484.738 390.431 484.369 391.238 484.278 392.268H491.121C491.121 391.584 490.971 390.992 490.666 390.5V390.495Z" fill="black"/>
<path d="M504.038 388.636C504.854 389.434 505.264 390.587 505.264 392.086V398.474H503.482V392.341C503.482 391.261 503.213 390.432 502.671 389.858C502.129 389.283 501.391 388.996 500.457 388.996C499.523 388.996 498.753 389.293 498.193 389.885C497.632 390.477 497.354 391.343 497.354 392.477V398.469H495.555V387.63H497.354V389.174C497.71 388.623 498.193 388.19 498.808 387.889C499.423 387.584 500.097 387.434 500.835 387.434C502.152 387.434 503.222 387.835 504.038 388.632V388.636Z" fill="black"/>
<path d="M510.603 389.119V395.507C510.603 396.035 510.717 396.405 510.94 396.623C511.164 396.842 511.551 396.951 512.107 396.951H513.433V398.473H511.811C510.808 398.473 510.057 398.241 509.555 397.78C509.054 397.32 508.804 396.559 508.804 395.507V389.119H507.4V387.634H508.804V384.904H510.603V387.634H513.433V389.119H510.603Z" fill="black"/>
<path d="M302.427 276.916C315.337 276.916 325.803 266.449 325.803 253.538C325.803 240.626 315.337 230.159 302.427 230.159C289.516 230.159 279.05 240.626 279.05 253.538C279.05 266.449 289.516 276.916 302.427 276.916Z" fill="#48C15F"/>
<path d="M555.383 412.494C567.65 412.494 577.594 402.549 577.594 390.281C577.594 378.014 567.65 368.069 555.383 368.069C543.117 368.069 533.173 378.014 533.173 390.281C533.173 402.549 543.117 412.494 555.383 412.494Z" fill="#123BF2"/>
<path d="M292.412 254.002L298.854 260.449L312.44 246.625" stroke="#FDFCFC" stroke-width="1.5" stroke-miterlimit="10" stroke-linecap="round"/>
<path d="M298.64 333.415C303.071 333.415 306.663 329.822 306.663 325.391C306.663 320.96 303.071 317.367 298.64 317.367C294.209 317.367 290.617 320.96 290.617 325.391C290.617 329.822 294.209 333.415 298.64 333.415Z" fill="#EFEFEF"/>
<path d="M519.087 317.981H326.419C321.988 317.981 318.396 321.574 318.396 326.005V326.01C318.396 330.441 321.988 334.033 326.419 334.033H519.087C523.518 334.033 527.11 330.441 527.11 326.01V326.005C527.11 321.574 523.518 317.981 519.087 317.981Z" fill="#EFEFEF"/>
<path d="M298.64 363.668C303.071 363.668 306.663 360.076 306.663 355.645C306.663 351.213 303.071 347.621 298.64 347.621C294.209 347.621 290.617 351.213 290.617 355.645C290.617 360.076 294.209 363.668 298.64 363.668Z" fill="#EFEFEF"/>
<path d="M519.087 348.236H326.419C321.988 348.236 318.396 351.829 318.396 356.26V356.265C318.396 360.696 321.988 364.288 326.419 364.288H519.087C523.518 364.288 527.11 360.696 527.11 356.265V356.26C527.11 351.829 523.518 348.236 519.087 348.236Z" fill="#EFEFEF"/>
<g filter="url(#filter2_d_166_5995)">
<path d="M440.86 108.96H281.537C279.129 108.96 277.177 110.912 277.177 113.32V158.565C277.177 160.973 279.129 162.925 281.537 162.925H440.86C443.268 162.925 445.22 160.973 445.22 158.565V113.32C445.22 110.912 443.268 108.96 440.86 108.96Z" fill="white"/>
</g>
<path d="M314.969 143.278L312.044 138.252H310.103V143.278H308.499V130.989H312.467C313.397 130.989 314.18 131.149 314.823 131.463C315.465 131.782 315.944 132.21 316.258 132.748C316.577 133.29 316.732 133.905 316.732 134.598C316.732 135.445 316.486 136.193 315.998 136.84C315.511 137.487 314.777 137.915 313.802 138.129L316.887 143.278H314.964H314.969ZM310.103 136.963H312.467C313.337 136.963 313.989 136.748 314.422 136.32C314.855 135.892 315.073 135.318 315.073 134.602C315.073 133.887 314.859 133.308 314.431 132.912C314.003 132.511 313.347 132.311 312.467 132.311H310.103V136.967V136.963Z" fill="#2A2A2A"/>
<path d="M327.98 139.045H320.257C320.317 139.997 320.64 140.74 321.237 141.278C321.829 141.811 322.549 142.08 323.396 142.08C324.089 142.08 324.668 141.92 325.132 141.597C325.597 141.273 325.925 140.84 326.112 140.303H327.838C327.579 141.232 327.064 141.988 326.285 142.567C325.506 143.146 324.545 143.442 323.392 143.442C322.476 143.442 321.656 143.237 320.932 142.827C320.207 142.417 319.642 141.829 319.232 141.073C318.822 140.316 318.617 139.437 318.617 138.435C318.617 137.432 318.818 136.562 319.219 135.806C319.62 135.054 320.18 134.475 320.904 134.07C321.629 133.664 322.458 133.459 323.401 133.459C324.344 133.459 325.128 133.659 325.834 134.06C326.54 134.461 327.082 135.008 327.465 135.71C327.848 136.411 328.039 137.2 328.039 138.084C328.039 138.389 328.021 138.712 327.984 139.054L327.98 139.045ZM325.97 136.161C325.702 135.719 325.333 135.386 324.868 135.154C324.403 134.926 323.888 134.812 323.324 134.812C322.513 134.812 321.82 135.072 321.251 135.587C320.681 136.106 320.353 136.822 320.271 137.737H326.371C326.371 137.127 326.235 136.598 325.966 136.161H325.97Z" fill="#2A2A2A"/>
<path d="M332.104 134.935V140.631C332.104 141.1 332.204 141.433 332.404 141.629C332.605 141.825 332.951 141.92 333.443 141.92H334.623V143.278H333.179C332.286 143.278 331.616 143.073 331.17 142.663C330.723 142.253 330.5 141.574 330.5 140.635V134.94H329.247V133.619H330.5V131.186H332.104V133.619H334.623V134.94H332.104V134.935Z" fill="#2A2A2A"/>
<path d="M336.563 135.81C336.964 135.063 337.511 134.484 338.213 134.074C338.91 133.664 339.689 133.459 340.55 133.459C341.411 133.459 342.131 133.641 342.755 134.006C343.379 134.37 343.844 134.83 344.149 135.382V133.618H345.771V143.282H344.149V141.483C343.83 142.048 343.356 142.512 342.727 142.886C342.099 143.255 341.365 143.442 340.531 143.442C339.698 143.442 338.896 143.232 338.203 142.809C337.511 142.385 336.964 141.793 336.563 141.027C336.162 140.262 335.962 139.391 335.962 138.416C335.962 137.441 336.162 136.562 336.563 135.815V135.81ZM343.707 136.521C343.411 135.979 343.015 135.564 342.518 135.277C342.017 134.99 341.47 134.844 340.869 134.844C340.267 134.844 339.725 134.985 339.229 135.268C338.736 135.55 338.34 135.96 338.048 136.503C337.752 137.045 337.607 137.678 337.607 138.407C337.607 139.136 337.752 139.792 338.048 140.339C338.34 140.886 338.736 141.305 339.229 141.592C339.721 141.879 340.267 142.025 340.869 142.025C341.47 142.025 342.017 141.879 342.518 141.592C343.019 141.305 343.416 140.886 343.707 140.339C343.999 139.792 344.149 139.154 344.149 138.425C344.149 137.696 344.003 137.063 343.707 136.521Z" fill="#2A2A2A"/>
<path d="M351.298 133.897C351.822 133.591 352.46 133.437 353.212 133.437V135.095H352.788C350.989 135.095 350.091 136.07 350.091 138.02V143.274H348.487V133.61H350.091V135.177C350.373 134.626 350.774 134.197 351.298 133.888V133.897Z" fill="#2A2A2A"/>
<path d="M361.24 134.002C361.868 134.366 362.338 134.826 362.643 135.378V133.614H364.265V143.488C364.265 144.367 364.078 145.155 363.7 145.843C363.322 146.531 362.784 147.069 362.087 147.456C361.385 147.844 360.574 148.04 359.645 148.04C358.374 148.04 357.317 147.739 356.47 147.142C355.622 146.541 355.121 145.725 354.971 144.691H356.556C356.734 145.278 357.098 145.752 357.649 146.112C358.201 146.472 358.866 146.65 359.641 146.65C360.52 146.65 361.24 146.372 361.8 145.821C362.356 145.269 362.638 144.49 362.638 143.492V141.465C362.319 142.03 361.85 142.499 361.226 142.877C360.602 143.255 359.873 143.442 359.039 143.442C358.205 143.442 357.404 143.233 356.702 142.809C356 142.385 355.454 141.793 355.053 141.027C354.652 140.262 354.451 139.392 354.451 138.417C354.451 137.442 354.652 136.562 355.053 135.815C355.454 135.068 356 134.489 356.702 134.079C357.399 133.669 358.178 133.464 359.039 133.464C359.9 133.464 360.606 133.646 361.235 134.011L361.24 134.002ZM362.201 136.521C361.905 135.979 361.508 135.564 361.012 135.277C360.511 134.99 359.964 134.844 359.363 134.844C358.761 134.844 358.219 134.986 357.722 135.268C357.23 135.551 356.834 135.961 356.542 136.503C356.246 137.045 356.1 137.678 356.1 138.407C356.1 139.137 356.246 139.793 356.542 140.339C356.834 140.886 357.23 141.305 357.722 141.592C358.214 141.879 358.761 142.025 359.363 142.025C359.964 142.025 360.511 141.879 361.012 141.592C361.513 141.305 361.909 140.886 362.201 140.339C362.492 139.793 362.643 139.155 362.643 138.426C362.643 137.697 362.497 137.063 362.201 136.521Z" fill="#2A2A2A"/>
<path d="M375.74 139.045H368.018C368.077 139.997 368.401 140.74 368.998 141.278C369.59 141.811 370.31 142.08 371.157 142.08C371.85 142.08 372.428 141.92 372.893 141.597C373.358 141.273 373.686 140.84 373.873 140.303H375.599C375.34 141.232 374.825 141.988 374.046 142.567C373.267 143.146 372.305 143.442 371.153 143.442C370.237 143.442 369.417 143.237 368.692 142.827C367.968 142.417 367.403 141.829 366.993 141.073C366.583 140.316 366.378 139.437 366.378 138.435C366.378 137.432 366.578 136.562 366.979 135.806C367.38 135.054 367.941 134.475 368.665 134.07C369.389 133.664 370.219 133.459 371.162 133.459C372.105 133.459 372.888 133.659 373.595 134.06C374.301 134.461 374.843 135.008 375.226 135.71C375.608 136.411 375.8 137.2 375.8 138.084C375.8 138.389 375.781 138.712 375.745 139.054L375.74 139.045ZM373.731 136.161C373.462 135.719 373.093 135.386 372.629 135.154C372.164 134.926 371.649 134.812 371.084 134.812C370.273 134.812 369.581 135.072 369.011 135.587C368.442 136.106 368.114 136.822 368.032 137.737H374.132C374.132 137.127 373.995 136.598 373.727 136.161H373.731Z" fill="#2A2A2A"/>
<path d="M379.868 134.935V140.631C379.868 141.1 379.969 141.433 380.169 141.629C380.369 141.825 380.716 141.92 381.208 141.92H382.388V143.278H380.944C380.051 143.278 379.381 143.073 378.934 142.663C378.488 142.253 378.265 141.574 378.265 140.635V134.94H377.012V133.619H378.265V131.186H379.868V133.619H382.388V134.94H379.868V134.935Z" fill="#2A2A2A"/>
<path d="M390.639 141.97H394.94V143.273H389.035V130.984H390.639V141.97Z" fill="#2A2A2A"/>
<path d="M396.703 131.727C396.493 131.518 396.384 131.258 396.384 130.953C396.384 130.648 396.489 130.388 396.703 130.178C396.917 129.969 397.172 129.859 397.477 129.859C397.783 129.859 398.019 129.964 398.224 130.178C398.429 130.388 398.534 130.648 398.534 130.953C398.534 131.258 398.429 131.518 398.224 131.727C398.019 131.937 397.769 132.046 397.477 132.046C397.186 132.046 396.912 131.942 396.703 131.727ZM398.256 133.614V143.278H396.653V133.614H398.256Z" fill="#2A2A2A"/>
<path d="M402.416 143.054C401.828 142.804 401.364 142.448 401.022 141.997C400.68 141.546 400.493 141.027 400.457 140.439H402.115C402.161 140.922 402.389 141.314 402.794 141.619C403.2 141.924 403.733 142.079 404.389 142.079C404.999 142.079 405.482 141.943 405.833 141.674C406.184 141.405 406.362 141.063 406.362 140.649C406.362 140.234 406.175 139.91 405.797 139.705C405.418 139.5 404.84 139.295 404.052 139.099C403.336 138.913 402.749 138.721 402.298 138.525C401.847 138.329 401.455 138.042 401.136 137.66C400.812 137.277 400.653 136.776 400.653 136.151C400.653 135.659 400.799 135.204 401.095 134.794C401.387 134.384 401.806 134.056 402.348 133.814C402.89 133.573 403.505 133.454 404.198 133.454C405.268 133.454 406.129 133.723 406.79 134.265C407.446 134.807 407.801 135.545 407.847 136.489H406.243C406.207 135.983 406.006 135.577 405.637 135.272C405.268 134.967 404.772 134.812 404.147 134.812C403.573 134.812 403.113 134.935 402.772 135.181C402.43 135.427 402.261 135.75 402.261 136.151C402.261 136.47 402.361 136.73 402.571 136.935C402.776 137.14 403.036 137.304 403.346 137.427C403.655 137.55 404.088 137.691 404.64 137.842C405.332 138.029 405.897 138.215 406.33 138.398C406.767 138.58 407.136 138.853 407.451 139.218C407.765 139.582 407.924 140.056 407.933 140.644C407.933 141.173 407.788 141.651 407.492 142.07C407.195 142.494 406.785 142.826 406.248 143.068C405.71 143.309 405.1 143.428 404.407 143.428C403.669 143.428 403.004 143.3 402.416 143.05V143.054Z" fill="#2A2A2A"/>
<path d="M412.148 134.935V140.631C412.148 141.1 412.248 141.433 412.448 141.629C412.649 141.825 412.995 141.92 413.487 141.92H414.667V143.278H413.223C412.33 143.278 411.66 143.073 411.214 142.663C410.767 142.253 410.544 141.574 410.544 140.635V134.94H409.291V133.619H410.544V131.186H412.148V133.619H414.667V134.94H412.148V134.935Z" fill="#2A2A2A"/>
<path d="M446.901 185.15L443.302 178.703C442.969 178.111 442.163 178.011 441.698 178.503L438.719 181.669C438.117 182.307 437.047 181.924 436.987 181.05L435.457 158.109C435.397 157.243 436.391 156.719 437.074 157.252L454.76 171.094C455.416 171.609 455.198 172.652 454.387 172.857L449.977 173.978C449.334 174.142 449.024 174.871 449.352 175.45L452.902 181.647C453.175 182.12 453.015 182.726 452.542 183.009L448.282 185.533C447.794 185.82 447.17 185.652 446.897 185.159L446.901 185.15Z" fill="white" stroke="black" stroke-width="2" stroke-miterlimit="10"/>
<path d="M431.876 161.868L427.584 164.21" stroke="black" stroke-width="2" stroke-linecap="round" stroke-linejoin="round"/>
<path d="M442.021 156.664L446.186 154.322" stroke="black" stroke-width="2" stroke-linecap="round" stroke-linejoin="round"/>
<path d="M438.509 153.799L439.939 148.728" stroke="black" stroke-width="2" stroke-linecap="round" stroke-linejoin="round"/>
<path d="M431.483 157.576L426.148 156.013" stroke="black" stroke-width="2" stroke-linecap="round" stroke-linejoin="round"/>
<path d="M434.085 154.191L431.875 149.507" stroke="black" stroke-width="2" stroke-linecap="round" stroke-linejoin="round"/>
<path d="M554.254 397.253L551.675 401.021L550.586 395.029L550.281 393.252L544.29 389.717L546.076 388.896L546.782 388.573L547.607 388.195L549.99 387.106L566.482 379.547L560.368 399.025L551.762 394.077L565.853 380.312" stroke="white" stroke-width="1.5" stroke-linecap="round" stroke-linejoin="round"/>
<defs>
<filter id="filter0_d_166_5995" x="254.178" y="205.86" width="370.932" height="119.37" filterUnits="userSpaceOnUse" color-interpolation-filters="sRGB">
<feFlood flood-opacity="0" result="BackgroundImageFix"/>
<feColorMatrix in="SourceAlpha" type="matrix" values="0 0 0 0 0 0 0 0 0 0 0 0 0 0 0 0 0 0 127 0" result="hardAlpha"/>
<feOffset dx="12.37" dy="12.37"/>
<feGaussianBlur stdDeviation="12.37"/>
<feColorMatrix type="matrix" values="0 0 0 0 0 0 0 0 0 0 0 0 0 0 0 0 0 0 0.1 0"/>
<feBlend mode="normal" in2="BackgroundImageFix" result="effect1_dropShadow_166_5995"/>
<feBlend mode="normal" in="SourceGraphic" in2="effect1_dropShadow_166_5995" result="shape"/>
</filter>
<filter id="filter1_d_166_5995" x="252.184" y="286.928" width="382.06" height="180.921" filterUnits="userSpaceOnUse" color-interpolation-filters="sRGB">
<feFlood flood-opacity="0" result="BackgroundImageFix"/>
<feColorMatrix in="SourceAlpha" type="matrix" values="0 0 0 0 0 0 0 0 0 0 0 0 0 0 0 0 0 0 127 0" result="hardAlpha"/>
<feOffset dx="15.94" dy="15.94"/>
<feGaussianBlur stdDeviation="15.94"/>
<feColorMatrix type="matrix" values="0 0 0 0 0 0 0 0 0 0 0 0 0 0 0 0 0 0 0.1 0"/>
<feBlend mode="normal" in2="BackgroundImageFix" result="effect1_dropShadow_166_5995"/>
<feBlend mode="normal" in="SourceGraphic" in2="effect1_dropShadow_166_5995" result="shape"/>
</filter>
<filter id="filter2_d_166_5995" x="269.317" y="101.1" width="199.483" height="85.4048" filterUnits="userSpaceOnUse" color-interpolation-filters="sRGB">
<feFlood flood-opacity="0" result="BackgroundImageFix"/>
<feColorMatrix in="SourceAlpha" type="matrix" values="0 0 0 0 0 0 0 0 0 0 0 0 0 0 0 0 0 0 127 0" result="hardAlpha"/>
<feOffset dx="7.86" dy="7.86"/>
<feGaussianBlur stdDeviation="7.86"/>
<feColorMatrix type="matrix" values="0 0 0 0 0 0 0 0 0 0 0 0 0 0 0 0 0 0 0.1 0"/>
<feBlend mode="normal" in2="BackgroundImageFix" result="effect1_dropShadow_166_5995"/>
<feBlend mode="normal" in="SourceGraphic" in2="effect1_dropShadow_166_5995" result="shape"/>
</filter>
</defs>
</svg>
