<svg width="1100" height="72" viewBox="0 0 1100 72" fill="none" xmlns="http://www.w3.org/2000/svg">
<g filter="url(#filter0_i_123_9665)">
<rect width="1100" height="72" rx="36" fill="white"/>
<rect x="0.5" y="0.5" width="1099" height="71" rx="35.5" stroke="url(#paint0_linear_123_9665)"/>
<path d="M53.189 39.1451C52.5435 38.356 52.0473 37.8471 51.6721 37.5867C51.5794 37.5197 51.4785 37.4565 51.3696 37.3895C51.7448 37.2356 52.0836 37.0699 52.3822 36.8963C53.6328 36.1586 54.6333 35.1763 55.3474 33.9848C56.0695 32.7816 56.4366 31.3456 56.4366 29.7162C56.4366 27.8462 55.9565 26.2248 55.0125 24.8992C54.0604 23.5658 52.7896 22.6387 51.2324 22.1456C49.772 21.684 47.6661 21.4473 44.9712 21.4473H30V49.9192H40.1906V39.0306C40.7594 39.0464 41.2516 39.2003 41.6913 39.4962C41.885 39.6342 42.3086 40.0445 42.9783 41.2912L47.7468 49.9231H59.2001L54.4679 40.9638C54.2379 40.518 53.8184 39.9222 53.185 39.149H53.189V39.1451ZM40.1906 28.5051H43.0791C44.834 28.5051 45.4755 28.8207 45.7014 29.0061C46.0726 29.3138 46.246 29.7478 46.246 30.3751C46.246 30.7854 46.1331 31.1207 45.887 31.4324C45.653 31.7282 45.3706 31.9018 44.9914 31.9768C43.6197 32.2766 43.1114 32.3239 42.9299 32.3239H40.1906V28.5051Z" fill="#140175"/>
<path d="M70.7506 38.9942H83.4343V32.1337H70.7506V29.6364H84.4227V22.5312H60.9473V49.9182H84.8181V42.4817H70.7506V38.9942Z" fill="#140175"/>
<path d="M107.978 33.8906C106.163 32.9675 104.101 32.427 102.169 31.9733C100.785 31.6498 99.3447 31.4407 98.0013 30.9673C97.7431 30.8766 97.4768 30.7661 97.2953 30.5649C96.7264 29.9297 96.9927 28.9001 97.6705 28.4661C98.1142 28.182 98.6629 28.1031 99.1914 28.0992C99.6795 28.0992 100.172 28.1544 100.628 28.3162C101.406 28.5923 101.951 29.188 102.342 29.8824C102.584 30.3124 102.871 30.9712 102.871 30.9712L112.242 30.8411L112.125 30.1862C111.746 27.1524 110.52 24.8918 108.482 23.4716C106.506 22.0947 103.649 21.4004 99.9902 21.4004C97.0331 21.4004 94.6528 21.7791 92.9181 22.5247C91.1309 23.294 89.7673 24.375 88.8636 25.74C87.9559 27.109 87.496 28.5923 87.496 30.1428C87.496 32.5059 88.4037 34.9479 90.1869 36.4668C91.8692 37.9146 94.669 39.0785 98.5096 39.9267C99.3124 40.1002 100.115 40.2935 100.894 40.5539C101.818 40.8577 103.351 41.5244 103.133 42.7435C103.068 43.0906 102.814 43.3826 102.512 43.5798C101.289 44.3807 99.0704 44.1519 97.8883 43.3826C96.6982 42.6054 96.3109 41.8519 95.8066 40.6289L95.73 40.3843L86.3906 40.479L86.4673 41.3666C86.7174 44.2229 87.8551 46.4795 90.1223 48.3731C92.8535 50.6534 96.5933 50.9966 100.047 50.9966C102.806 50.9966 105.138 50.5942 106.982 49.7973C108.87 48.9807 110.366 47.7617 111.427 46.1718C112.488 44.5779 113.142 42.8342 113.025 40.905C112.924 39.3073 112.315 37.7411 111.302 36.4865C110.399 35.37 109.249 34.5376 107.978 33.8906Z" fill="#140175"/>
<path d="M131.966 39.2558C131.966 40.5064 131.643 41.469 131.01 42.112C130.364 42.7669 129.477 43.0825 128.287 43.0825C127.096 43.0825 126.193 42.759 125.551 42.0962C124.906 41.4295 124.591 40.4985 124.591 39.2558V22.5127H114.824V38.877C114.824 40.2657 115.09 41.8714 115.615 43.6467C115.958 44.8144 116.599 45.9546 117.515 47.0395C118.423 48.1125 119.448 48.9568 120.553 49.5446C121.654 50.1324 123.03 50.527 124.64 50.7203C126.185 50.9057 127.629 51.0004 128.936 51.0004C131.24 51.0004 133.257 50.6808 134.923 50.0535C136.17 49.588 137.368 48.7753 138.485 47.6391C139.607 46.5029 140.438 45.1537 140.962 43.6348C141.475 42.1475 141.737 40.5458 141.737 38.8731V22.5127H131.97V39.2558H131.966Z" fill="#140175"/>
<path d="M153.441 22.5312H143.658V49.9182H166.161V41.9688H153.441V22.5312Z" fill="#140175"/>
<path d="M268.516 36.5391H265.477V35.3125H268.516C269.104 35.3125 269.581 35.2188 269.945 35.0312C270.31 34.8438 270.576 34.5833 270.742 34.25C270.914 33.9167 271 33.5365 271 33.1094C271 32.7188 270.914 32.3516 270.742 32.0078C270.576 31.6641 270.31 31.388 269.945 31.1797C269.581 30.9661 269.104 30.8594 268.516 30.8594H265.828V41H264.32V29.625H268.516C269.375 29.625 270.102 29.7734 270.695 30.0703C271.289 30.3672 271.74 30.7786 272.047 31.3047C272.354 31.8255 272.508 32.4219 272.508 33.0938C272.508 33.8229 272.354 34.4453 272.047 34.9609C271.74 35.4766 271.289 35.8698 270.695 36.1406C270.102 36.4062 269.375 36.5391 268.516 36.5391ZM275.766 29V41H274.312V29H275.766ZM283.07 39.5547V35.2031C283.07 34.8698 283.003 34.5807 282.867 34.3359C282.737 34.0859 282.539 33.8932 282.273 33.7578C282.008 33.6224 281.68 33.5547 281.289 33.5547C280.924 33.5547 280.604 33.6172 280.328 33.7422C280.057 33.8672 279.844 34.0312 279.688 34.2344C279.536 34.4375 279.461 34.6562 279.461 34.8906H278.016C278.016 34.5885 278.094 34.2891 278.25 33.9922C278.406 33.6953 278.63 33.4271 278.922 33.1875C279.219 32.9427 279.573 32.75 279.984 32.6094C280.401 32.4635 280.865 32.3906 281.375 32.3906C281.99 32.3906 282.531 32.4948 283 32.7031C283.474 32.9115 283.844 33.2266 284.109 33.6484C284.38 34.0651 284.516 34.5885 284.516 35.2188V39.1562C284.516 39.4375 284.539 39.737 284.586 40.0547C284.638 40.3724 284.714 40.6458 284.812 40.875V41H283.305C283.232 40.8333 283.174 40.612 283.133 40.3359C283.091 40.0547 283.07 39.7943 283.07 39.5547ZM283.32 35.875L283.336 36.8906H281.875C281.464 36.8906 281.096 36.9245 280.773 36.9922C280.451 37.0547 280.18 37.151 279.961 37.2812C279.742 37.4115 279.576 37.5755 279.461 37.7734C279.346 37.9661 279.289 38.1927 279.289 38.4531C279.289 38.7188 279.349 38.9609 279.469 39.1797C279.589 39.3984 279.768 39.5729 280.008 39.7031C280.253 39.8281 280.552 39.8906 280.906 39.8906C281.349 39.8906 281.74 39.7969 282.078 39.6094C282.417 39.4219 282.685 39.1927 282.883 38.9219C283.086 38.651 283.195 38.388 283.211 38.1328L283.828 38.8281C283.792 39.0469 283.693 39.2891 283.531 39.5547C283.37 39.8203 283.154 40.0755 282.883 40.3203C282.617 40.5599 282.299 40.7604 281.93 40.9219C281.565 41.0781 281.154 41.1562 280.695 41.1562C280.122 41.1562 279.62 41.0443 279.188 40.8203C278.76 40.5964 278.427 40.2969 278.188 39.9219C277.953 39.5417 277.836 39.1172 277.836 38.6484C277.836 38.1953 277.924 37.7969 278.102 37.4531C278.279 37.1042 278.534 36.8151 278.867 36.5859C279.201 36.3516 279.602 36.1745 280.07 36.0547C280.539 35.9349 281.062 35.875 281.641 35.875H283.32ZM290.328 32.5469V33.6562H285.758V32.5469H290.328ZM287.305 30.4922H288.75V38.9062C288.75 39.1927 288.794 39.4089 288.883 39.5547C288.971 39.7005 289.086 39.7969 289.227 39.8438C289.367 39.8906 289.518 39.9141 289.68 39.9141C289.799 39.9141 289.924 39.9036 290.055 39.8828C290.19 39.8568 290.292 39.8359 290.359 39.8203L290.367 41C290.253 41.0365 290.102 41.0703 289.914 41.1016C289.732 41.138 289.51 41.1562 289.25 41.1562C288.896 41.1562 288.57 41.0859 288.273 40.9453C287.977 40.8047 287.74 40.5703 287.562 40.2422C287.391 39.9089 287.305 39.4609 287.305 38.8984V30.4922ZM294.18 41H292.734V31.6562C292.734 31.0469 292.844 30.5339 293.062 30.1172C293.286 29.6953 293.607 29.3776 294.023 29.1641C294.44 28.9453 294.935 28.8359 295.508 28.8359C295.674 28.8359 295.841 28.8464 296.008 28.8672C296.18 28.888 296.346 28.9193 296.508 28.9609L296.43 30.1406C296.32 30.1146 296.195 30.0964 296.055 30.0859C295.919 30.0755 295.784 30.0703 295.648 30.0703C295.341 30.0703 295.076 30.1328 294.852 30.2578C294.633 30.3776 294.466 30.5547 294.352 30.7891C294.237 31.0234 294.18 31.3125 294.18 31.6562V41ZM295.977 32.5469V33.6562H291.398V32.5469H295.977ZM297.203 36.8672V36.6875C297.203 36.0781 297.292 35.513 297.469 34.9922C297.646 34.4661 297.901 34.0104 298.234 33.625C298.568 33.2344 298.971 32.9323 299.445 32.7188C299.919 32.5 300.451 32.3906 301.039 32.3906C301.633 32.3906 302.167 32.5 302.641 32.7188C303.12 32.9323 303.526 33.2344 303.859 33.625C304.198 34.0104 304.456 34.4661 304.633 34.9922C304.81 35.513 304.898 36.0781 304.898 36.6875V36.8672C304.898 37.4766 304.81 38.0417 304.633 38.5625C304.456 39.0833 304.198 39.5391 303.859 39.9297C303.526 40.3151 303.122 40.6172 302.648 40.8359C302.18 41.0495 301.648 41.1562 301.055 41.1562C300.461 41.1562 299.927 41.0495 299.453 40.8359C298.979 40.6172 298.573 40.3151 298.234 39.9297C297.901 39.5391 297.646 39.0833 297.469 38.5625C297.292 38.0417 297.203 37.4766 297.203 36.8672ZM298.648 36.6875V36.8672C298.648 37.2891 298.698 37.6875 298.797 38.0625C298.896 38.4323 299.044 38.7604 299.242 39.0469C299.445 39.3333 299.698 39.5599 300 39.7266C300.302 39.888 300.654 39.9688 301.055 39.9688C301.451 39.9688 301.797 39.888 302.094 39.7266C302.396 39.5599 302.646 39.3333 302.844 39.0469C303.042 38.7604 303.19 38.4323 303.289 38.0625C303.393 37.6875 303.445 37.2891 303.445 36.8672V36.6875C303.445 36.2708 303.393 35.8776 303.289 35.5078C303.19 35.1328 303.039 34.8021 302.836 34.5156C302.638 34.224 302.388 33.9948 302.086 33.8281C301.789 33.6615 301.44 33.5781 301.039 33.5781C300.643 33.5781 300.294 33.6615 299.992 33.8281C299.695 33.9948 299.445 34.224 299.242 34.5156C299.044 34.8021 298.896 35.1328 298.797 35.5078C298.698 35.8776 298.648 36.2708 298.648 36.6875ZM308.156 33.875V41H306.711V32.5469H308.117L308.156 33.875ZM310.797 32.5L310.789 33.8438C310.669 33.8177 310.555 33.8021 310.445 33.7969C310.341 33.7865 310.221 33.7812 310.086 33.7812C309.753 33.7812 309.458 33.8333 309.203 33.9375C308.948 34.0417 308.732 34.1875 308.555 34.375C308.378 34.5625 308.237 34.7865 308.133 35.0469C308.034 35.3021 307.969 35.5833 307.938 35.8906L307.531 36.125C307.531 35.6146 307.581 35.1354 307.68 34.6875C307.784 34.2396 307.943 33.8438 308.156 33.5C308.37 33.151 308.641 32.8802 308.969 32.6875C309.302 32.4896 309.698 32.3906 310.156 32.3906C310.26 32.3906 310.38 32.4036 310.516 32.4297C310.651 32.4505 310.745 32.474 310.797 32.5ZM313.57 34.2266V41H312.117V32.5469H313.492L313.57 34.2266ZM313.273 36.4531L312.602 36.4297C312.607 35.8516 312.682 35.3177 312.828 34.8281C312.974 34.3333 313.19 33.9036 313.477 33.5391C313.763 33.1745 314.12 32.8932 314.547 32.6953C314.974 32.4922 315.469 32.3906 316.031 32.3906C316.427 32.3906 316.792 32.4479 317.125 32.5625C317.458 32.6719 317.747 32.8464 317.992 33.0859C318.237 33.3255 318.427 33.6328 318.562 34.0078C318.698 34.3828 318.766 34.8359 318.766 35.3672V41H317.32V35.4375C317.32 34.9948 317.245 34.6406 317.094 34.375C316.948 34.1094 316.74 33.9167 316.469 33.7969C316.198 33.6719 315.88 33.6094 315.516 33.6094C315.089 33.6094 314.732 33.6849 314.445 33.8359C314.159 33.987 313.93 34.1953 313.758 34.4609C313.586 34.7266 313.461 35.0312 313.383 35.375C313.31 35.7135 313.273 36.0729 313.273 36.4531ZM318.75 35.6562L317.781 35.9531C317.786 35.4896 317.862 35.0443 318.008 34.6172C318.159 34.1901 318.375 33.8099 318.656 33.4766C318.943 33.1432 319.294 32.8802 319.711 32.6875C320.128 32.4896 320.604 32.3906 321.141 32.3906C321.594 32.3906 321.995 32.4505 322.344 32.5703C322.698 32.6901 322.995 32.875 323.234 33.125C323.479 33.3698 323.664 33.6849 323.789 34.0703C323.914 34.4557 323.977 34.9141 323.977 35.4453V41H322.523V35.4297C322.523 34.9557 322.448 34.5885 322.297 34.3281C322.151 34.0625 321.943 33.8776 321.672 33.7734C321.406 33.6641 321.089 33.6094 320.719 33.6094C320.401 33.6094 320.12 33.6641 319.875 33.7734C319.63 33.8828 319.424 34.0339 319.258 34.2266C319.091 34.4141 318.964 34.6302 318.875 34.875C318.792 35.1198 318.75 35.3802 318.75 35.6562Z" fill="#333333"/>
<path d="M356.383 38.125C356.383 37.8594 356.341 37.625 356.258 37.4219C356.18 37.2135 356.039 37.026 355.836 36.8594C355.638 36.6927 355.362 36.5339 355.008 36.3828C354.659 36.2318 354.216 36.0781 353.68 35.9219C353.117 35.7552 352.609 35.5703 352.156 35.3672C351.703 35.1589 351.315 34.9219 350.992 34.6562C350.669 34.3906 350.422 34.0859 350.25 33.7422C350.078 33.3984 349.992 33.0052 349.992 32.5625C349.992 32.1198 350.083 31.7109 350.266 31.3359C350.448 30.9609 350.708 30.6354 351.047 30.3594C351.391 30.0781 351.799 29.8594 352.273 29.7031C352.747 29.5469 353.276 29.4688 353.859 29.4688C354.714 29.4688 355.438 29.6328 356.031 29.9609C356.63 30.2839 357.086 30.7083 357.398 31.2344C357.711 31.7552 357.867 32.3125 357.867 32.9062H356.367C356.367 32.4792 356.276 32.1016 356.094 31.7734C355.911 31.4401 355.635 31.1797 355.266 30.9922C354.896 30.7995 354.427 30.7031 353.859 30.7031C353.323 30.7031 352.88 30.7839 352.531 30.9453C352.182 31.1068 351.922 31.3255 351.75 31.6016C351.583 31.8776 351.5 32.1927 351.5 32.5469C351.5 32.7865 351.549 33.0052 351.648 33.2031C351.753 33.3958 351.911 33.5755 352.125 33.7422C352.344 33.9089 352.62 34.0625 352.953 34.2031C353.292 34.3438 353.695 34.4792 354.164 34.6094C354.81 34.7917 355.367 34.9948 355.836 35.2188C356.305 35.4427 356.69 35.6953 356.992 35.9766C357.299 36.2526 357.526 36.5677 357.672 36.9219C357.823 37.2708 357.898 37.6667 357.898 38.1094C357.898 38.5729 357.805 38.9922 357.617 39.3672C357.43 39.7422 357.161 40.0625 356.812 40.3281C356.464 40.5938 356.044 40.7995 355.555 40.9453C355.07 41.0859 354.529 41.1562 353.93 41.1562C353.404 41.1562 352.885 41.0833 352.375 40.9375C351.87 40.7917 351.409 40.5729 350.992 40.2812C350.581 39.9896 350.25 39.6302 350 39.2031C349.755 38.7708 349.633 38.2708 349.633 37.7031H351.133C351.133 38.0938 351.208 38.4297 351.359 38.7109C351.51 38.987 351.716 39.2161 351.977 39.3984C352.242 39.5807 352.542 39.7161 352.875 39.8047C353.214 39.888 353.565 39.9297 353.93 39.9297C354.456 39.9297 354.901 39.8568 355.266 39.7109C355.63 39.5651 355.906 39.3568 356.094 39.0859C356.286 38.8151 356.383 38.4948 356.383 38.125ZM359.219 36.8672V36.6875C359.219 36.0781 359.307 35.513 359.484 34.9922C359.661 34.4661 359.917 34.0104 360.25 33.625C360.583 33.2344 360.987 32.9323 361.461 32.7188C361.935 32.5 362.466 32.3906 363.055 32.3906C363.648 32.3906 364.182 32.5 364.656 32.7188C365.135 32.9323 365.542 33.2344 365.875 33.625C366.214 34.0104 366.471 34.4661 366.648 34.9922C366.826 35.513 366.914 36.0781 366.914 36.6875V36.8672C366.914 37.4766 366.826 38.0417 366.648 38.5625C366.471 39.0833 366.214 39.5391 365.875 39.9297C365.542 40.3151 365.138 40.6172 364.664 40.8359C364.195 41.0495 363.664 41.1562 363.07 41.1562C362.477 41.1562 361.943 41.0495 361.469 40.8359C360.995 40.6172 360.589 40.3151 360.25 39.9297C359.917 39.5391 359.661 39.0833 359.484 38.5625C359.307 38.0417 359.219 37.4766 359.219 36.8672ZM360.664 36.6875V36.8672C360.664 37.2891 360.714 37.6875 360.812 38.0625C360.911 38.4323 361.06 38.7604 361.258 39.0469C361.461 39.3333 361.714 39.5599 362.016 39.7266C362.318 39.888 362.669 39.9688 363.07 39.9688C363.466 39.9688 363.812 39.888 364.109 39.7266C364.411 39.5599 364.661 39.3333 364.859 39.0469C365.057 38.7604 365.206 38.4323 365.305 38.0625C365.409 37.6875 365.461 37.2891 365.461 36.8672V36.6875C365.461 36.2708 365.409 35.8776 365.305 35.5078C365.206 35.1328 365.055 34.8021 364.852 34.5156C364.654 34.224 364.404 33.9948 364.102 33.8281C363.805 33.6615 363.456 33.5781 363.055 33.5781C362.659 33.5781 362.31 33.6615 362.008 33.8281C361.711 33.9948 361.461 34.224 361.258 34.5156C361.06 34.8021 360.911 35.1328 360.812 35.5078C360.714 35.8776 360.664 36.2708 360.664 36.6875ZM370.297 29V41H368.844V29H370.297ZM377.789 39.0469V32.5469H379.242V41H377.859L377.789 39.0469ZM378.062 37.2656L378.664 37.25C378.664 37.8125 378.604 38.3333 378.484 38.8125C378.37 39.2865 378.182 39.6979 377.922 40.0469C377.661 40.3958 377.32 40.6693 376.898 40.8672C376.477 41.0599 375.964 41.1562 375.359 41.1562C374.948 41.1562 374.57 41.0964 374.227 40.9766C373.888 40.8568 373.596 40.6719 373.352 40.4219C373.107 40.1719 372.917 39.8464 372.781 39.4453C372.651 39.0443 372.586 38.5625 372.586 38V32.5469H374.031V38.0156C374.031 38.3958 374.073 38.7109 374.156 38.9609C374.245 39.2057 374.362 39.401 374.508 39.5469C374.659 39.6875 374.826 39.7865 375.008 39.8438C375.195 39.901 375.388 39.9297 375.586 39.9297C376.201 39.9297 376.688 39.8125 377.047 39.5781C377.406 39.3385 377.664 39.0182 377.82 38.6172C377.982 38.2109 378.062 37.7604 378.062 37.2656ZM384.984 32.5469V33.6562H380.414V32.5469H384.984ZM381.961 30.4922H383.406V38.9062C383.406 39.1927 383.451 39.4089 383.539 39.5547C383.628 39.7005 383.742 39.7969 383.883 39.8438C384.023 39.8906 384.174 39.9141 384.336 39.9141C384.456 39.9141 384.581 39.9036 384.711 39.8828C384.846 39.8568 384.948 39.8359 385.016 39.8203L385.023 41C384.909 41.0365 384.758 41.0703 384.57 41.1016C384.388 41.138 384.167 41.1562 383.906 41.1562C383.552 41.1562 383.227 41.0859 382.93 40.9453C382.633 40.8047 382.396 40.5703 382.219 40.2422C382.047 39.9089 381.961 39.4609 381.961 38.8984V30.4922ZM388.25 32.5469V41H386.797V32.5469H388.25ZM386.688 30.3047C386.688 30.0703 386.758 29.8724 386.898 29.7109C387.044 29.5495 387.258 29.4688 387.539 29.4688C387.815 29.4688 388.026 29.5495 388.172 29.7109C388.323 29.8724 388.398 30.0703 388.398 30.3047C388.398 30.5286 388.323 30.7214 388.172 30.8828C388.026 31.0391 387.815 31.1172 387.539 31.1172C387.258 31.1172 387.044 31.0391 386.898 30.8828C386.758 30.7214 386.688 30.5286 386.688 30.3047ZM390.188 36.8672V36.6875C390.188 36.0781 390.276 35.513 390.453 34.9922C390.63 34.4661 390.885 34.0104 391.219 33.625C391.552 33.2344 391.956 32.9323 392.43 32.7188C392.904 32.5 393.435 32.3906 394.023 32.3906C394.617 32.3906 395.151 32.5 395.625 32.7188C396.104 32.9323 396.51 33.2344 396.844 33.625C397.182 34.0104 397.44 34.4661 397.617 34.9922C397.794 35.513 397.883 36.0781 397.883 36.6875V36.8672C397.883 37.4766 397.794 38.0417 397.617 38.5625C397.44 39.0833 397.182 39.5391 396.844 39.9297C396.51 40.3151 396.107 40.6172 395.633 40.8359C395.164 41.0495 394.633 41.1562 394.039 41.1562C393.445 41.1562 392.911 41.0495 392.438 40.8359C391.964 40.6172 391.557 40.3151 391.219 39.9297C390.885 39.5391 390.63 39.0833 390.453 38.5625C390.276 38.0417 390.188 37.4766 390.188 36.8672ZM391.633 36.6875V36.8672C391.633 37.2891 391.682 37.6875 391.781 38.0625C391.88 38.4323 392.029 38.7604 392.227 39.0469C392.43 39.3333 392.682 39.5599 392.984 39.7266C393.286 39.888 393.638 39.9688 394.039 39.9688C394.435 39.9688 394.781 39.888 395.078 39.7266C395.38 39.5599 395.63 39.3333 395.828 39.0469C396.026 38.7604 396.174 38.4323 396.273 38.0625C396.378 37.6875 396.43 37.2891 396.43 36.8672V36.6875C396.43 36.2708 396.378 35.8776 396.273 35.5078C396.174 35.1328 396.023 34.8021 395.82 34.5156C395.622 34.224 395.372 33.9948 395.07 33.8281C394.773 33.6615 394.424 33.5781 394.023 33.5781C393.628 33.5781 393.279 33.6615 392.977 33.8281C392.68 33.9948 392.43 34.224 392.227 34.5156C392.029 34.8021 391.88 35.1328 391.781 35.5078C391.682 35.8776 391.633 36.2708 391.633 36.6875ZM401.141 34.3516V41H399.695V32.5469H401.062L401.141 34.3516ZM400.797 36.4531L400.195 36.4297C400.201 35.8516 400.286 35.3177 400.453 34.8281C400.62 34.3333 400.854 33.9036 401.156 33.5391C401.458 33.1745 401.818 32.8932 402.234 32.6953C402.656 32.4922 403.122 32.3906 403.633 32.3906C404.049 32.3906 404.424 32.4479 404.758 32.5625C405.091 32.6719 405.375 32.849 405.609 33.0938C405.849 33.3385 406.031 33.6562 406.156 34.0469C406.281 34.4323 406.344 34.9036 406.344 35.4609V41H404.891V35.4453C404.891 35.0026 404.826 34.6484 404.695 34.3828C404.565 34.112 404.375 33.9167 404.125 33.7969C403.875 33.6719 403.568 33.6094 403.203 33.6094C402.844 33.6094 402.516 33.6849 402.219 33.8359C401.927 33.987 401.674 34.1953 401.461 34.4609C401.253 34.7266 401.089 35.0312 400.969 35.375C400.854 35.7135 400.797 36.0729 400.797 36.4531ZM413.461 38.7578C413.461 38.5495 413.414 38.3568 413.32 38.1797C413.232 37.9974 413.047 37.8333 412.766 37.6875C412.49 37.5365 412.073 37.4062 411.516 37.2969C411.047 37.1979 410.622 37.0807 410.242 36.9453C409.867 36.8099 409.547 36.6458 409.281 36.4531C409.021 36.2604 408.82 36.0339 408.68 35.7734C408.539 35.513 408.469 35.2083 408.469 34.8594C408.469 34.526 408.542 34.2109 408.688 33.9141C408.839 33.6172 409.049 33.3542 409.32 33.125C409.596 32.8958 409.927 32.7161 410.312 32.5859C410.698 32.4557 411.128 32.3906 411.602 32.3906C412.279 32.3906 412.857 32.5104 413.336 32.75C413.815 32.9896 414.182 33.3099 414.438 33.7109C414.693 34.1068 414.82 34.5469 414.82 35.0312H413.375C413.375 34.7969 413.305 34.5703 413.164 34.3516C413.029 34.1276 412.828 33.9427 412.562 33.7969C412.302 33.651 411.982 33.5781 411.602 33.5781C411.201 33.5781 410.875 33.6406 410.625 33.7656C410.38 33.8854 410.201 34.0391 410.086 34.2266C409.977 34.4141 409.922 34.612 409.922 34.8203C409.922 34.9766 409.948 35.1172 410 35.2422C410.057 35.362 410.156 35.474 410.297 35.5781C410.438 35.6771 410.635 35.7708 410.891 35.8594C411.146 35.9479 411.471 36.0365 411.867 36.125C412.56 36.2812 413.13 36.4688 413.578 36.6875C414.026 36.9062 414.359 37.1745 414.578 37.4922C414.797 37.8099 414.906 38.1953 414.906 38.6484C414.906 39.0182 414.828 39.3568 414.672 39.6641C414.521 39.9714 414.299 40.237 414.008 40.4609C413.721 40.6797 413.378 40.8516 412.977 40.9766C412.581 41.0964 412.135 41.1562 411.641 41.1562C410.896 41.1562 410.266 41.0234 409.75 40.7578C409.234 40.4922 408.844 40.1484 408.578 39.7266C408.312 39.3047 408.18 38.8594 408.18 38.3906H409.633C409.654 38.7865 409.768 39.1016 409.977 39.3359C410.185 39.5651 410.44 39.7292 410.742 39.8281C411.044 39.9219 411.344 39.9688 411.641 39.9688C412.036 39.9688 412.367 39.9167 412.633 39.8125C412.904 39.7083 413.109 39.5651 413.25 39.3828C413.391 39.2005 413.461 38.9922 413.461 38.7578Z" fill="#333333"/>
<path d="M446.383 38.125C446.383 37.8594 446.341 37.625 446.258 37.4219C446.18 37.2135 446.039 37.026 445.836 36.8594C445.638 36.6927 445.362 36.5339 445.008 36.3828C444.659 36.2318 444.216 36.0781 443.68 35.9219C443.117 35.7552 442.609 35.5703 442.156 35.3672C441.703 35.1589 441.315 34.9219 440.992 34.6562C440.669 34.3906 440.422 34.0859 440.25 33.7422C440.078 33.3984 439.992 33.0052 439.992 32.5625C439.992 32.1198 440.083 31.7109 440.266 31.3359C440.448 30.9609 440.708 30.6354 441.047 30.3594C441.391 30.0781 441.799 29.8594 442.273 29.7031C442.747 29.5469 443.276 29.4688 443.859 29.4688C444.714 29.4688 445.438 29.6328 446.031 29.9609C446.63 30.2839 447.086 30.7083 447.398 31.2344C447.711 31.7552 447.867 32.3125 447.867 32.9062H446.367C446.367 32.4792 446.276 32.1016 446.094 31.7734C445.911 31.4401 445.635 31.1797 445.266 30.9922C444.896 30.7995 444.427 30.7031 443.859 30.7031C443.323 30.7031 442.88 30.7839 442.531 30.9453C442.182 31.1068 441.922 31.3255 441.75 31.6016C441.583 31.8776 441.5 32.1927 441.5 32.5469C441.5 32.7865 441.549 33.0052 441.648 33.2031C441.753 33.3958 441.911 33.5755 442.125 33.7422C442.344 33.9089 442.62 34.0625 442.953 34.2031C443.292 34.3438 443.695 34.4792 444.164 34.6094C444.81 34.7917 445.367 34.9948 445.836 35.2188C446.305 35.4427 446.69 35.6953 446.992 35.9766C447.299 36.2526 447.526 36.5677 447.672 36.9219C447.823 37.2708 447.898 37.6667 447.898 38.1094C447.898 38.5729 447.805 38.9922 447.617 39.3672C447.43 39.7422 447.161 40.0625 446.812 40.3281C446.464 40.5938 446.044 40.7995 445.555 40.9453C445.07 41.0859 444.529 41.1562 443.93 41.1562C443.404 41.1562 442.885 41.0833 442.375 40.9375C441.87 40.7917 441.409 40.5729 440.992 40.2812C440.581 39.9896 440.25 39.6302 440 39.2031C439.755 38.7708 439.633 38.2708 439.633 37.7031H441.133C441.133 38.0938 441.208 38.4297 441.359 38.7109C441.51 38.987 441.716 39.2161 441.977 39.3984C442.242 39.5807 442.542 39.7161 442.875 39.8047C443.214 39.888 443.565 39.9297 443.93 39.9297C444.456 39.9297 444.901 39.8568 445.266 39.7109C445.63 39.5651 445.906 39.3568 446.094 39.0859C446.286 38.8151 446.383 38.4948 446.383 38.125ZM453.109 41.1562C452.521 41.1562 451.987 41.0573 451.508 40.8594C451.034 40.6562 450.625 40.3724 450.281 40.0078C449.943 39.6432 449.682 39.2109 449.5 38.7109C449.318 38.2109 449.227 37.6641 449.227 37.0703V36.7422C449.227 36.0547 449.328 35.4427 449.531 34.9062C449.734 34.3646 450.01 33.9062 450.359 33.5312C450.708 33.1562 451.104 32.8724 451.547 32.6797C451.99 32.487 452.448 32.3906 452.922 32.3906C453.526 32.3906 454.047 32.4948 454.484 32.7031C454.927 32.9115 455.289 33.2031 455.57 33.5781C455.852 33.9479 456.06 34.3854 456.195 34.8906C456.331 35.3906 456.398 35.9375 456.398 36.5312V37.1797H450.086V36H454.953V35.8906C454.932 35.5156 454.854 35.151 454.719 34.7969C454.589 34.4427 454.38 34.151 454.094 33.9219C453.807 33.6927 453.417 33.5781 452.922 33.5781C452.594 33.5781 452.292 33.6484 452.016 33.7891C451.74 33.9245 451.503 34.1276 451.305 34.3984C451.107 34.6693 450.953 35 450.844 35.3906C450.734 35.7812 450.68 36.2318 450.68 36.7422V37.0703C450.68 37.4714 450.734 37.849 450.844 38.2031C450.958 38.5521 451.122 38.8594 451.336 39.125C451.555 39.3906 451.818 39.599 452.125 39.75C452.438 39.901 452.792 39.9766 453.188 39.9766C453.698 39.9766 454.13 39.8724 454.484 39.6641C454.839 39.4557 455.148 39.1771 455.414 38.8281L456.289 39.5234C456.107 39.7995 455.875 40.0625 455.594 40.3125C455.312 40.5625 454.966 40.7656 454.555 40.9219C454.148 41.0781 453.667 41.1562 453.109 41.1562ZM459.531 33.875V41H458.086V32.5469H459.492L459.531 33.875ZM462.172 32.5L462.164 33.8438C462.044 33.8177 461.93 33.8021 461.82 33.7969C461.716 33.7865 461.596 33.7812 461.461 33.7812C461.128 33.7812 460.833 33.8333 460.578 33.9375C460.323 34.0417 460.107 34.1875 459.93 34.375C459.753 34.5625 459.612 34.7865 459.508 35.0469C459.409 35.3021 459.344 35.5833 459.312 35.8906L458.906 36.125C458.906 35.6146 458.956 35.1354 459.055 34.6875C459.159 34.2396 459.318 33.8438 459.531 33.5C459.745 33.151 460.016 32.8802 460.344 32.6875C460.677 32.4896 461.073 32.3906 461.531 32.3906C461.635 32.3906 461.755 32.4036 461.891 32.4297C462.026 32.4505 462.12 32.474 462.172 32.5ZM466.219 39.6953L468.531 32.5469H470.008L466.969 41H466L466.219 39.6953ZM464.289 32.5469L466.672 39.7344L466.836 41H465.867L462.805 32.5469H464.289ZM472.969 32.5469V41H471.516V32.5469H472.969ZM471.406 30.3047C471.406 30.0703 471.477 29.8724 471.617 29.7109C471.763 29.5495 471.977 29.4688 472.258 29.4688C472.534 29.4688 472.745 29.5495 472.891 29.7109C473.042 29.8724 473.117 30.0703 473.117 30.3047C473.117 30.5286 473.042 30.7214 472.891 30.8828C472.745 31.0391 472.534 31.1172 472.258 31.1172C471.977 31.1172 471.763 31.0391 471.617 30.8828C471.477 30.7214 471.406 30.5286 471.406 30.3047ZM478.672 39.9688C479.016 39.9688 479.333 39.8984 479.625 39.7578C479.917 39.6172 480.156 39.4245 480.344 39.1797C480.531 38.9297 480.638 38.6458 480.664 38.3281H482.039C482.013 38.8281 481.844 39.2943 481.531 39.7266C481.224 40.1536 480.82 40.5 480.32 40.7656C479.82 41.026 479.271 41.1562 478.672 41.1562C478.036 41.1562 477.482 41.0443 477.008 40.8203C476.539 40.5964 476.148 40.2891 475.836 39.8984C475.529 39.5078 475.297 39.0599 475.141 38.5547C474.99 38.0443 474.914 37.5052 474.914 36.9375V36.6094C474.914 36.0417 474.99 35.5052 475.141 35C475.297 34.4896 475.529 34.0391 475.836 33.6484C476.148 33.2578 476.539 32.9505 477.008 32.7266C477.482 32.5026 478.036 32.3906 478.672 32.3906C479.333 32.3906 479.911 32.526 480.406 32.7969C480.901 33.0625 481.289 33.4271 481.57 33.8906C481.857 34.349 482.013 34.8698 482.039 35.4531H480.664C480.638 35.1042 480.539 34.7891 480.367 34.5078C480.201 34.2266 479.971 34.0026 479.68 33.8359C479.393 33.6641 479.057 33.5781 478.672 33.5781C478.229 33.5781 477.857 33.6667 477.555 33.8438C477.258 34.0156 477.021 34.25 476.844 34.5469C476.672 34.8385 476.547 35.1641 476.469 35.5234C476.396 35.8776 476.359 36.2396 476.359 36.6094V36.9375C476.359 37.3073 476.396 37.6719 476.469 38.0312C476.542 38.3906 476.664 38.7161 476.836 39.0078C477.013 39.2995 477.25 39.5339 477.547 39.7109C477.849 39.8828 478.224 39.9688 478.672 39.9688ZM487.172 41.1562C486.583 41.1562 486.049 41.0573 485.57 40.8594C485.096 40.6562 484.688 40.3724 484.344 40.0078C484.005 39.6432 483.745 39.2109 483.562 38.7109C483.38 38.2109 483.289 37.6641 483.289 37.0703V36.7422C483.289 36.0547 483.391 35.4427 483.594 34.9062C483.797 34.3646 484.073 33.9062 484.422 33.5312C484.771 33.1562 485.167 32.8724 485.609 32.6797C486.052 32.487 486.51 32.3906 486.984 32.3906C487.589 32.3906 488.109 32.4948 488.547 32.7031C488.99 32.9115 489.352 33.2031 489.633 33.5781C489.914 33.9479 490.122 34.3854 490.258 34.8906C490.393 35.3906 490.461 35.9375 490.461 36.5312V37.1797H484.148V36H489.016V35.8906C488.995 35.5156 488.917 35.151 488.781 34.7969C488.651 34.4427 488.443 34.151 488.156 33.9219C487.87 33.6927 487.479 33.5781 486.984 33.5781C486.656 33.5781 486.354 33.6484 486.078 33.7891C485.802 33.9245 485.565 34.1276 485.367 34.3984C485.169 34.6693 485.016 35 484.906 35.3906C484.797 35.7812 484.742 36.2318 484.742 36.7422V37.0703C484.742 37.4714 484.797 37.849 484.906 38.2031C485.021 38.5521 485.185 38.8594 485.398 39.125C485.617 39.3906 485.88 39.599 486.188 39.75C486.5 39.901 486.854 39.9766 487.25 39.9766C487.76 39.9766 488.193 39.8724 488.547 39.6641C488.901 39.4557 489.211 39.1771 489.477 38.8281L490.352 39.5234C490.169 39.7995 489.938 40.0625 489.656 40.3125C489.375 40.5625 489.029 40.7656 488.617 40.9219C488.211 41.0781 487.729 41.1562 487.172 41.1562ZM497.07 38.7578C497.07 38.5495 497.023 38.3568 496.93 38.1797C496.841 37.9974 496.656 37.8333 496.375 37.6875C496.099 37.5365 495.682 37.4062 495.125 37.2969C494.656 37.1979 494.232 37.0807 493.852 36.9453C493.477 36.8099 493.156 36.6458 492.891 36.4531C492.63 36.2604 492.43 36.0339 492.289 35.7734C492.148 35.513 492.078 35.2083 492.078 34.8594C492.078 34.526 492.151 34.2109 492.297 33.9141C492.448 33.6172 492.659 33.3542 492.93 33.125C493.206 32.8958 493.536 32.7161 493.922 32.5859C494.307 32.4557 494.737 32.3906 495.211 32.3906C495.888 32.3906 496.466 32.5104 496.945 32.75C497.424 32.9896 497.792 33.3099 498.047 33.7109C498.302 34.1068 498.43 34.5469 498.43 35.0312H496.984C496.984 34.7969 496.914 34.5703 496.773 34.3516C496.638 34.1276 496.438 33.9427 496.172 33.7969C495.911 33.651 495.591 33.5781 495.211 33.5781C494.81 33.5781 494.484 33.6406 494.234 33.7656C493.99 33.8854 493.81 34.0391 493.695 34.2266C493.586 34.4141 493.531 34.612 493.531 34.8203C493.531 34.9766 493.557 35.1172 493.609 35.2422C493.667 35.362 493.766 35.474 493.906 35.5781C494.047 35.6771 494.245 35.7708 494.5 35.8594C494.755 35.9479 495.081 36.0365 495.477 36.125C496.169 36.2812 496.74 36.4688 497.188 36.6875C497.635 36.9062 497.969 37.1745 498.188 37.4922C498.406 37.8099 498.516 38.1953 498.516 38.6484C498.516 39.0182 498.438 39.3568 498.281 39.6641C498.13 39.9714 497.909 40.237 497.617 40.4609C497.331 40.6797 496.987 40.8516 496.586 40.9766C496.19 41.0964 495.745 41.1562 495.25 41.1562C494.505 41.1562 493.875 41.0234 493.359 40.7578C492.844 40.4922 492.453 40.1484 492.188 39.7266C491.922 39.3047 491.789 38.8594 491.789 38.3906H493.242C493.263 38.7865 493.378 39.1016 493.586 39.3359C493.794 39.5651 494.049 39.7292 494.352 39.8281C494.654 39.9219 494.953 39.9688 495.25 39.9688C495.646 39.9688 495.977 39.9167 496.242 39.8125C496.513 39.7083 496.719 39.5651 496.859 39.3828C497 39.2005 497.07 38.9922 497.07 38.7578Z" fill="#333333"/>
<path d="M531.688 34.112C531.688 35.04 531.368 35.8133 530.728 36.432C530.099 37.04 529.133 37.344 527.832 37.344H525.688V42H524.232V30.848H527.832C529.091 30.848 530.045 31.152 530.696 31.76C531.357 32.368 531.688 33.152 531.688 34.112ZM527.832 36.144C528.643 36.144 529.24 35.968 529.624 35.616C530.008 35.264 530.2 34.7627 530.2 34.112C530.2 32.736 529.411 32.048 527.832 32.048H525.688V36.144H527.832ZM532.954 37.584C532.954 36.688 533.135 35.904 533.498 35.232C533.86 34.5493 534.356 34.0213 534.986 33.648C535.626 33.2747 536.335 33.088 537.114 33.088C537.882 33.088 538.548 33.2533 539.114 33.584C539.679 33.9147 540.1 34.3307 540.378 34.832V33.232H541.85V42H540.378V40.368C540.09 40.88 539.658 41.3067 539.082 41.648C538.516 41.9787 537.855 42.144 537.098 42.144C536.319 42.144 535.615 41.952 534.986 41.568C534.356 41.184 533.86 40.6453 533.498 39.952C533.135 39.2587 532.954 38.4693 532.954 37.584ZM540.378 37.6C540.378 36.9387 540.244 36.3627 539.978 35.872C539.711 35.3813 539.348 35.008 538.89 34.752C538.442 34.4853 537.946 34.352 537.402 34.352C536.858 34.352 536.362 34.48 535.914 34.736C535.466 34.992 535.108 35.3653 534.842 35.856C534.575 36.3467 534.442 36.9227 534.442 37.584C534.442 38.256 534.575 38.8427 534.842 39.344C535.108 39.8347 535.466 40.2133 535.914 40.48C536.362 40.736 536.858 40.864 537.402 40.864C537.946 40.864 538.442 40.736 538.89 40.48C539.348 40.2133 539.711 39.8347 539.978 39.344C540.244 38.8427 540.378 38.2613 540.378 37.6ZM545.766 34.656C546.022 34.1547 546.385 33.7653 546.854 33.488C547.334 33.2107 547.915 33.072 548.598 33.072V34.576H548.214C546.582 34.576 545.766 35.4613 545.766 37.232V42H544.31V33.232H545.766V34.656ZM552.055 34.432V39.6C552.055 40.0267 552.146 40.3307 552.327 40.512C552.508 40.6827 552.823 40.768 553.271 40.768H554.343V42H553.031C552.22 42 551.612 41.8133 551.207 41.44C550.802 41.0667 550.599 40.4533 550.599 39.6V34.432H549.463V33.232H550.599V31.024H552.055V33.232H554.343V34.432H552.055ZM560.379 33.072C561.446 33.072 562.31 33.3973 562.971 34.048C563.632 34.688 563.963 35.616 563.963 36.832V42H562.523V37.04C562.523 36.1653 562.304 35.4987 561.867 35.04C561.43 34.5707 560.832 34.336 560.075 34.336C559.307 34.336 558.694 34.576 558.235 35.056C557.787 35.536 557.563 36.2347 557.563 37.152V42H556.107V33.232H557.563V34.48C557.851 34.032 558.24 33.6853 558.731 33.44C559.232 33.1947 559.782 33.072 560.379 33.072ZM574.341 37.28C574.341 37.5573 574.325 37.8507 574.293 38.16H567.285C567.339 39.024 567.632 39.7013 568.165 40.192C568.709 40.672 569.365 40.912 570.133 40.912C570.763 40.912 571.285 40.768 571.701 40.48C572.128 40.1813 572.427 39.7867 572.597 39.296H574.165C573.931 40.1387 573.461 40.8267 572.757 41.36C572.053 41.8827 571.179 42.144 570.133 42.144C569.301 42.144 568.555 41.9573 567.893 41.584C567.243 41.2107 566.731 40.6827 566.357 40C565.984 39.3067 565.797 38.5067 565.797 37.6C565.797 36.6933 565.979 35.8987 566.341 35.216C566.704 34.5333 567.211 34.0107 567.861 33.648C568.523 33.2747 569.28 33.088 570.133 33.088C570.965 33.088 571.701 33.2693 572.341 33.632C572.981 33.9947 573.472 34.496 573.813 35.136C574.165 35.7653 574.341 36.48 574.341 37.28ZM572.837 36.976C572.837 36.4213 572.715 35.9467 572.469 35.552C572.224 35.1467 571.888 34.8427 571.461 34.64C571.045 34.4267 570.581 34.32 570.069 34.32C569.333 34.32 568.704 34.5547 568.181 35.024C567.669 35.4933 567.376 36.144 567.301 36.976H572.837ZM577.719 34.656C577.975 34.1547 578.338 33.7653 578.807 33.488C579.287 33.2107 579.869 33.072 580.551 33.072V34.576H580.167C578.535 34.576 577.719 35.4613 577.719 37.232V42H576.263V33.232H577.719V34.656ZM585.336 42.144C584.664 42.144 584.061 42.032 583.528 41.808C582.995 41.5733 582.573 41.2533 582.264 40.848C581.955 40.432 581.784 39.9573 581.752 39.424H583.256C583.299 39.8613 583.501 40.2187 583.864 40.496C584.237 40.7733 584.723 40.912 585.32 40.912C585.875 40.912 586.312 40.7893 586.632 40.544C586.952 40.2987 587.112 39.9893 587.112 39.616C587.112 39.232 586.941 38.9493 586.6 38.768C586.259 38.576 585.731 38.3893 585.016 38.208C584.365 38.0373 583.832 37.8667 583.416 37.696C583.011 37.5147 582.659 37.2533 582.36 36.912C582.072 36.56 581.928 36.1013 581.928 35.536C581.928 35.088 582.061 34.6773 582.328 34.304C582.595 33.9307 582.973 33.6373 583.464 33.424C583.955 33.2 584.515 33.088 585.144 33.088C586.115 33.088 586.899 33.3333 587.496 33.824C588.093 34.3147 588.413 34.9867 588.456 35.84H587C586.968 35.3813 586.781 35.0133 586.44 34.736C586.109 34.4587 585.661 34.32 585.096 34.32C584.573 34.32 584.157 34.432 583.848 34.656C583.539 34.88 583.384 35.1733 583.384 35.536C583.384 35.824 583.475 36.064 583.656 36.256C583.848 36.4373 584.083 36.5867 584.36 36.704C584.648 36.8107 585.043 36.9333 585.544 37.072C586.173 37.2427 586.685 37.4133 587.08 37.584C587.475 37.744 587.811 37.9893 588.088 38.32C588.376 38.6507 588.525 39.0827 588.536 39.616C588.536 40.096 588.403 40.528 588.136 40.912C587.869 41.296 587.491 41.6 587 41.824C586.52 42.0373 585.965 42.144 585.336 42.144Z" fill="#333333"/>
<path d="M620.104 42L617.448 37.44H615.688V42H614.232V30.848H617.832C618.675 30.848 619.384 30.992 619.96 31.28C620.547 31.568 620.984 31.9573 621.272 32.448C621.56 32.9387 621.704 33.4987 621.704 34.128C621.704 34.896 621.48 35.5733 621.032 36.16C620.595 36.7467 619.933 37.136 619.048 37.328L621.848 42H620.104ZM615.688 36.272H617.832C618.621 36.272 619.213 36.08 619.608 35.696C620.003 35.3013 620.2 34.7787 620.2 34.128C620.2 33.4667 620.003 32.9547 619.608 32.592C619.224 32.2293 618.632 32.048 617.832 32.048H615.688V36.272ZM631.966 37.28C631.966 37.5573 631.95 37.8507 631.918 38.16H624.91C624.964 39.024 625.257 39.7013 625.79 40.192C626.334 40.672 626.99 40.912 627.758 40.912C628.388 40.912 628.91 40.768 629.326 40.48C629.753 40.1813 630.052 39.7867 630.222 39.296H631.79C631.556 40.1387 631.086 40.8267 630.382 41.36C629.678 41.8827 628.804 42.144 627.758 42.144C626.926 42.144 626.18 41.9573 625.518 41.584C624.868 41.2107 624.356 40.6827 623.982 40C623.609 39.3067 623.422 38.5067 623.422 37.6C623.422 36.6933 623.604 35.8987 623.966 35.216C624.329 34.5333 624.836 34.0107 625.486 33.648C626.148 33.2747 626.905 33.088 627.758 33.088C628.59 33.088 629.326 33.2693 629.966 33.632C630.606 33.9947 631.097 34.496 631.438 35.136C631.79 35.7653 631.966 36.48 631.966 37.28ZM630.462 36.976C630.462 36.4213 630.34 35.9467 630.094 35.552C629.849 35.1467 629.513 34.8427 629.086 34.64C628.67 34.4267 628.206 34.32 627.694 34.32C626.958 34.32 626.329 34.5547 625.806 35.024C625.294 35.4933 625.001 36.144 624.926 36.976H630.462ZM636.992 42.144C636.32 42.144 635.718 42.032 635.184 41.808C634.651 41.5733 634.23 41.2533 633.92 40.848C633.611 40.432 633.44 39.9573 633.408 39.424H634.912C634.955 39.8613 635.158 40.2187 635.52 40.496C635.894 40.7733 636.379 40.912 636.976 40.912C637.531 40.912 637.968 40.7893 638.288 40.544C638.608 40.2987 638.768 39.9893 638.768 39.616C638.768 39.232 638.598 38.9493 638.256 38.768C637.915 38.576 637.387 38.3893 636.672 38.208C636.022 38.0373 635.488 37.8667 635.072 37.696C634.667 37.5147 634.315 37.2533 634.016 36.912C633.728 36.56 633.584 36.1013 633.584 35.536C633.584 35.088 633.718 34.6773 633.984 34.304C634.251 33.9307 634.63 33.6373 635.12 33.424C635.611 33.2 636.171 33.088 636.8 33.088C637.771 33.088 638.555 33.3333 639.152 33.824C639.75 34.3147 640.07 34.9867 640.112 35.84H638.656C638.624 35.3813 638.438 35.0133 638.096 34.736C637.766 34.4587 637.318 34.32 636.752 34.32C636.23 34.32 635.814 34.432 635.504 34.656C635.195 34.88 635.04 35.1733 635.04 35.536C635.04 35.824 635.131 36.064 635.312 36.256C635.504 36.4373 635.739 36.5867 636.016 36.704C636.304 36.8107 636.699 36.9333 637.2 37.072C637.83 37.2427 638.342 37.4133 638.736 37.584C639.131 37.744 639.467 37.9893 639.744 38.32C640.032 38.6507 640.182 39.0827 640.192 39.616C640.192 40.096 640.059 40.528 639.792 40.912C639.526 41.296 639.147 41.6 638.656 41.824C638.176 42.0373 637.622 42.144 636.992 42.144ZM646.072 42.144C645.25 42.144 644.504 41.9573 643.832 41.584C643.17 41.2107 642.648 40.6827 642.264 40C641.89 39.3067 641.704 38.5067 641.704 37.6C641.704 36.704 641.896 35.9147 642.28 35.232C642.674 34.5387 643.208 34.0107 643.88 33.648C644.552 33.2747 645.304 33.088 646.136 33.088C646.968 33.088 647.72 33.2747 648.392 33.648C649.064 34.0107 649.592 34.5333 649.976 35.216C650.37 35.8987 650.568 36.6933 650.568 37.6C650.568 38.5067 650.365 39.3067 649.96 40C649.565 40.6827 649.026 41.2107 648.344 41.584C647.661 41.9573 646.904 42.144 646.072 42.144ZM646.072 40.864C646.594 40.864 647.085 40.7413 647.544 40.496C648.002 40.2507 648.37 39.8827 648.648 39.392C648.936 38.9013 649.08 38.304 649.08 37.6C649.08 36.896 648.941 36.2987 648.664 35.808C648.386 35.3173 648.024 34.9547 647.576 34.72C647.128 34.4747 646.642 34.352 646.12 34.352C645.586 34.352 645.096 34.4747 644.648 34.72C644.21 34.9547 643.858 35.3173 643.592 35.808C643.325 36.2987 643.192 36.896 643.192 37.6C643.192 38.3147 643.32 38.9173 643.576 39.408C643.842 39.8987 644.194 40.2667 644.632 40.512C645.069 40.7467 645.549 40.864 646.072 40.864ZM660.258 33.232V42H658.802V40.704C658.525 41.152 658.135 41.504 657.634 41.76C657.143 42.0053 656.599 42.128 656.002 42.128C655.319 42.128 654.706 41.9893 654.162 41.712C653.618 41.424 653.186 40.9973 652.866 40.432C652.557 39.8667 652.402 39.1787 652.402 38.368V33.232H653.842V38.176C653.842 39.04 654.061 39.7067 654.498 40.176C654.935 40.6347 655.533 40.864 656.29 40.864C657.069 40.864 657.682 40.624 658.13 40.144C658.578 39.664 658.802 38.9653 658.802 38.048V33.232H660.258ZM664.172 34.656C664.428 34.1547 664.791 33.7653 665.26 33.488C665.74 33.2107 666.322 33.072 667.004 33.072V34.576H666.62C664.988 34.576 664.172 35.4613 664.172 37.232V42H662.716V33.232H664.172V34.656ZM668.141 37.6C668.141 36.6933 668.322 35.904 668.685 35.232C669.048 34.5493 669.549 34.0213 670.189 33.648C670.84 33.2747 671.581 33.088 672.413 33.088C673.49 33.088 674.376 33.3493 675.069 33.872C675.773 34.3947 676.237 35.12 676.461 36.048H674.893C674.744 35.5147 674.45 35.0933 674.013 34.784C673.586 34.4747 673.053 34.32 672.413 34.32C671.581 34.32 670.909 34.608 670.397 35.184C669.885 35.7493 669.629 36.5547 669.629 37.6C669.629 38.656 669.885 39.472 670.397 40.048C670.909 40.624 671.581 40.912 672.413 40.912C673.053 40.912 673.586 40.7627 674.013 40.464C674.44 40.1653 674.733 39.7387 674.893 39.184H676.461C676.226 40.08 675.757 40.8 675.053 41.344C674.349 41.8773 673.469 42.144 672.413 42.144C671.581 42.144 670.84 41.9573 670.189 41.584C669.549 41.2107 669.048 40.6827 668.685 40C668.322 39.3173 668.141 38.5173 668.141 37.6ZM686.404 37.28C686.404 37.5573 686.388 37.8507 686.356 38.16H679.348C679.401 39.024 679.695 39.7013 680.228 40.192C680.772 40.672 681.428 40.912 682.196 40.912C682.825 40.912 683.348 40.768 683.764 40.48C684.191 40.1813 684.489 39.7867 684.66 39.296H686.228C685.993 40.1387 685.524 40.8267 684.82 41.36C684.116 41.8827 683.241 42.144 682.196 42.144C681.364 42.144 680.617 41.9573 679.956 41.584C679.305 41.2107 678.793 40.6827 678.42 40C678.047 39.3067 677.86 38.5067 677.86 37.6C677.86 36.6933 678.041 35.8987 678.404 35.216C678.767 34.5333 679.273 34.0107 679.924 33.648C680.585 33.2747 681.343 33.088 682.196 33.088C683.028 33.088 683.764 33.2693 684.404 33.632C685.044 33.9947 685.535 34.496 685.876 35.136C686.228 35.7653 686.404 36.48 686.404 37.28ZM684.9 36.976C684.9 36.4213 684.777 35.9467 684.532 35.552C684.287 35.1467 683.951 34.8427 683.524 34.64C683.108 34.4267 682.644 34.32 682.132 34.32C681.396 34.32 680.767 34.5547 680.244 35.024C679.732 35.4933 679.439 36.144 679.364 36.976H684.9ZM691.43 42.144C690.758 42.144 690.155 42.032 689.622 41.808C689.088 41.5733 688.667 41.2533 688.358 40.848C688.048 40.432 687.878 39.9573 687.846 39.424H689.35C689.392 39.8613 689.595 40.2187 689.958 40.496C690.331 40.7733 690.816 40.912 691.414 40.912C691.968 40.912 692.406 40.7893 692.726 40.544C693.046 40.2987 693.206 39.9893 693.206 39.616C693.206 39.232 693.035 38.9493 692.694 38.768C692.352 38.576 691.824 38.3893 691.11 38.208C690.459 38.0373 689.926 37.8667 689.51 37.696C689.104 37.5147 688.752 37.2533 688.454 36.912C688.166 36.56 688.022 36.1013 688.022 35.536C688.022 35.088 688.155 34.6773 688.422 34.304C688.688 33.9307 689.067 33.6373 689.558 33.424C690.048 33.2 690.608 33.088 691.238 33.088C692.208 33.088 692.992 33.3333 693.59 33.824C694.187 34.3147 694.507 34.9867 694.55 35.84H693.094C693.062 35.3813 692.875 35.0133 692.534 34.736C692.203 34.4587 691.755 34.32 691.19 34.32C690.667 34.32 690.251 34.432 689.942 34.656C689.632 34.88 689.478 35.1733 689.478 35.536C689.478 35.824 689.568 36.064 689.75 36.256C689.942 36.4373 690.176 36.5867 690.454 36.704C690.742 36.8107 691.136 36.9333 691.638 37.072C692.267 37.2427 692.779 37.4133 693.174 37.584C693.568 37.744 693.904 37.9893 694.182 38.32C694.47 38.6507 694.619 39.0827 694.63 39.616C694.63 40.096 694.496 40.528 694.23 40.912C693.963 41.296 693.584 41.6 693.094 41.824C692.614 42.0373 692.059 42.144 691.43 42.144Z" fill="#333333"/>
<path d="M726.824 39.52H721.96L721.064 42H719.528L723.56 30.912H725.24L729.256 42H727.72L726.824 39.52ZM726.408 38.336L724.392 32.704L722.376 38.336H726.408ZM732.469 34.864C732.768 34.3413 733.205 33.9147 733.781 33.584C734.357 33.2533 735.013 33.088 735.749 33.088C736.539 33.088 737.248 33.2747 737.877 33.648C738.507 34.0213 739.003 34.5493 739.365 35.232C739.728 35.904 739.909 36.688 739.909 37.584C739.909 38.4693 739.728 39.2587 739.365 39.952C739.003 40.6453 738.501 41.184 737.861 41.568C737.232 41.952 736.528 42.144 735.749 42.144C734.992 42.144 734.325 41.9787 733.749 41.648C733.184 41.3173 732.757 40.896 732.469 40.384V42H731.013V30.16H732.469V34.864ZM738.421 37.584C738.421 36.9227 738.288 36.3467 738.021 35.856C737.755 35.3653 737.392 34.992 736.933 34.736C736.485 34.48 735.989 34.352 735.445 34.352C734.912 34.352 734.416 34.4853 733.957 34.752C733.509 35.008 733.147 35.3867 732.869 35.888C732.603 36.3787 732.469 36.9493 732.469 37.6C732.469 38.2613 732.603 38.8427 732.869 39.344C733.147 39.8347 733.509 40.2133 733.957 40.48C734.416 40.736 734.912 40.864 735.445 40.864C735.989 40.864 736.485 40.736 736.933 40.48C737.392 40.2133 737.755 39.8347 738.021 39.344C738.288 38.8427 738.421 38.256 738.421 37.584ZM745.65 42.144C744.828 42.144 744.082 41.9573 743.41 41.584C742.748 41.2107 742.226 40.6827 741.842 40C741.468 39.3067 741.282 38.5067 741.282 37.6C741.282 36.704 741.474 35.9147 741.858 35.232C742.252 34.5387 742.786 34.0107 743.458 33.648C744.13 33.2747 744.882 33.088 745.714 33.088C746.546 33.088 747.298 33.2747 747.97 33.648C748.642 34.0107 749.17 34.5333 749.554 35.216C749.948 35.8987 750.146 36.6933 750.146 37.6C750.146 38.5067 749.943 39.3067 749.538 40C749.143 40.6827 748.604 41.2107 747.922 41.584C747.239 41.9573 746.482 42.144 745.65 42.144ZM745.65 40.864C746.172 40.864 746.663 40.7413 747.122 40.496C747.58 40.2507 747.948 39.8827 748.226 39.392C748.514 38.9013 748.658 38.304 748.658 37.6C748.658 36.896 748.519 36.2987 748.242 35.808C747.964 35.3173 747.602 34.9547 747.154 34.72C746.706 34.4747 746.22 34.352 745.698 34.352C745.164 34.352 744.674 34.4747 744.226 34.72C743.788 34.9547 743.436 35.3173 743.17 35.808C742.903 36.2987 742.77 36.896 742.77 37.6C742.77 38.3147 742.898 38.9173 743.154 39.408C743.42 39.8987 743.772 40.2667 744.21 40.512C744.647 40.7467 745.127 40.864 745.65 40.864ZM759.836 33.232V42H758.38V40.704C758.103 41.152 757.713 41.504 757.212 41.76C756.721 42.0053 756.177 42.128 755.58 42.128C754.897 42.128 754.284 41.9893 753.74 41.712C753.196 41.424 752.764 40.9973 752.444 40.432C752.135 39.8667 751.98 39.1787 751.98 38.368V33.232H753.42V38.176C753.42 39.04 753.639 39.7067 754.076 40.176C754.513 40.6347 755.111 40.864 755.868 40.864C756.647 40.864 757.26 40.624 757.708 40.144C758.156 39.664 758.38 38.9653 758.38 38.048V33.232H759.836ZM764.071 34.432V39.6C764.071 40.0267 764.161 40.3307 764.343 40.512C764.524 40.6827 764.839 40.768 765.286 40.768H766.359V42H765.047C764.236 42 763.628 41.8133 763.223 41.44C762.817 41.0667 762.615 40.4533 762.615 39.6V34.432H761.479V33.232H762.615V31.024H764.071V33.232H766.359V34.432H764.071ZM780.164 33.232V42H778.708V40.704C778.431 41.152 778.042 41.504 777.54 41.76C777.05 42.0053 776.506 42.128 775.908 42.128C775.226 42.128 774.612 41.9893 774.068 41.712C773.524 41.424 773.092 40.9973 772.772 40.432C772.463 39.8667 772.308 39.1787 772.308 38.368V33.232H773.748V38.176C773.748 39.04 773.967 39.7067 774.404 40.176C774.842 40.6347 775.439 40.864 776.196 40.864C776.975 40.864 777.588 40.624 778.036 40.144C778.484 39.664 778.708 38.9653 778.708 38.048V33.232H780.164ZM785.727 42.144C785.055 42.144 784.452 42.032 783.919 41.808C783.385 41.5733 782.964 41.2533 782.655 40.848C782.345 40.432 782.175 39.9573 782.143 39.424H783.647C783.689 39.8613 783.892 40.2187 784.255 40.496C784.628 40.7733 785.113 40.912 785.711 40.912C786.265 40.912 786.703 40.7893 787.023 40.544C787.343 40.2987 787.503 39.9893 787.503 39.616C787.503 39.232 787.332 38.9493 786.991 38.768C786.649 38.576 786.121 38.3893 785.407 38.208C784.756 38.0373 784.223 37.8667 783.807 37.696C783.401 37.5147 783.049 37.2533 782.751 36.912C782.463 36.56 782.319 36.1013 782.319 35.536C782.319 35.088 782.452 34.6773 782.719 34.304C782.985 33.9307 783.364 33.6373 783.855 33.424C784.345 33.2 784.905 33.088 785.535 33.088C786.505 33.088 787.289 33.3333 787.887 33.824C788.484 34.3147 788.804 34.9867 788.847 35.84H787.391C787.359 35.3813 787.172 35.0133 786.831 34.736C786.5 34.4587 786.052 34.32 785.487 34.32C784.964 34.32 784.548 34.432 784.239 34.656C783.929 34.88 783.775 35.1733 783.775 35.536C783.775 35.824 783.865 36.064 784.047 36.256C784.239 36.4373 784.473 36.5867 784.751 36.704C785.039 36.8107 785.433 36.9333 785.935 37.072C786.564 37.2427 787.076 37.4133 787.471 37.584C787.865 37.744 788.201 37.9893 788.479 38.32C788.767 38.6507 788.916 39.0827 788.927 39.616C788.927 40.096 788.793 40.528 788.527 40.912C788.26 41.296 787.881 41.6 787.391 41.824C786.911 42.0373 786.356 42.144 785.727 42.144Z" fill="#333333"/>
<rect x="875.5" y="15.5" width="81" height="41" rx="20.5" stroke="#4C38FF"/>
<path d="M904.219 39.7734V41H898.531V39.7734H904.219ZM898.828 29.625V41H897.32V29.625H898.828ZM905.344 36.8672V36.6875C905.344 36.0781 905.432 35.513 905.609 34.9922C905.786 34.4661 906.042 34.0104 906.375 33.625C906.708 33.2344 907.112 32.9323 907.586 32.7188C908.06 32.5 908.591 32.3906 909.18 32.3906C909.773 32.3906 910.307 32.5 910.781 32.7188C911.26 32.9323 911.667 33.2344 912 33.625C912.339 34.0104 912.596 34.4661 912.773 34.9922C912.951 35.513 913.039 36.0781 913.039 36.6875V36.8672C913.039 37.4766 912.951 38.0417 912.773 38.5625C912.596 39.0833 912.339 39.5391 912 39.9297C911.667 40.3151 911.263 40.6172 910.789 40.8359C910.32 41.0495 909.789 41.1562 909.195 41.1562C908.602 41.1562 908.068 41.0495 907.594 40.8359C907.12 40.6172 906.714 40.3151 906.375 39.9297C906.042 39.5391 905.786 39.0833 905.609 38.5625C905.432 38.0417 905.344 37.4766 905.344 36.8672ZM906.789 36.6875V36.8672C906.789 37.2891 906.839 37.6875 906.938 38.0625C907.036 38.4323 907.185 38.7604 907.383 39.0469C907.586 39.3333 907.839 39.5599 908.141 39.7266C908.443 39.888 908.794 39.9688 909.195 39.9688C909.591 39.9688 909.938 39.888 910.234 39.7266C910.536 39.5599 910.786 39.3333 910.984 39.0469C911.182 38.7604 911.331 38.4323 911.43 38.0625C911.534 37.6875 911.586 37.2891 911.586 36.8672V36.6875C911.586 36.2708 911.534 35.8776 911.43 35.5078C911.331 35.1328 911.18 34.8021 910.977 34.5156C910.779 34.224 910.529 33.9948 910.227 33.8281C909.93 33.6615 909.581 33.5781 909.18 33.5781C908.784 33.5781 908.435 33.6615 908.133 33.8281C907.836 33.9948 907.586 34.224 907.383 34.5156C907.185 34.8021 907.036 35.1328 906.938 35.5078C906.839 35.8776 906.789 36.2708 906.789 36.6875ZM920.328 32.5469H921.641V40.8203C921.641 41.5651 921.49 42.2005 921.188 42.7266C920.885 43.2526 920.464 43.651 919.922 43.9219C919.385 44.1979 918.766 44.3359 918.062 44.3359C917.771 44.3359 917.427 44.2891 917.031 44.1953C916.641 44.1068 916.255 43.9531 915.875 43.7344C915.5 43.5208 915.185 43.2318 914.93 42.8672L915.688 42.0078C916.042 42.4349 916.411 42.7318 916.797 42.8984C917.188 43.0651 917.573 43.1484 917.953 43.1484C918.411 43.1484 918.807 43.0625 919.141 42.8906C919.474 42.7188 919.732 42.4635 919.914 42.125C920.102 41.7917 920.195 41.3802 920.195 40.8906V34.4062L920.328 32.5469ZM914.508 36.8672V36.7031C914.508 36.0573 914.583 35.4714 914.734 34.9453C914.891 34.4141 915.112 33.9583 915.398 33.5781C915.69 33.1979 916.042 32.9062 916.453 32.7031C916.865 32.4948 917.328 32.3906 917.844 32.3906C918.375 32.3906 918.839 32.4844 919.234 32.6719C919.635 32.8542 919.974 33.1224 920.25 33.4766C920.531 33.8255 920.753 34.2474 920.914 34.7422C921.076 35.237 921.188 35.7969 921.25 36.4219V37.1406C921.193 37.7604 921.081 38.3177 920.914 38.8125C920.753 39.3073 920.531 39.7292 920.25 40.0781C919.974 40.4271 919.635 40.6953 919.234 40.8828C918.833 41.0651 918.365 41.1562 917.828 41.1562C917.323 41.1562 916.865 41.0495 916.453 40.8359C916.047 40.6224 915.698 40.3229 915.406 39.9375C915.115 39.5521 914.891 39.099 914.734 38.5781C914.583 38.0521 914.508 37.4818 914.508 36.8672ZM915.953 36.7031V36.8672C915.953 37.2891 915.995 37.6849 916.078 38.0547C916.167 38.4245 916.299 38.75 916.477 39.0312C916.659 39.3125 916.891 39.5339 917.172 39.6953C917.453 39.8516 917.789 39.9297 918.18 39.9297C918.659 39.9297 919.055 39.8281 919.367 39.625C919.68 39.4219 919.927 39.1536 920.109 38.8203C920.297 38.487 920.443 38.125 920.547 37.7344V35.8516C920.49 35.5651 920.401 35.2891 920.281 35.0234C920.167 34.7526 920.016 34.513 919.828 34.3047C919.646 34.0911 919.419 33.9219 919.148 33.7969C918.878 33.6719 918.56 33.6094 918.195 33.6094C917.799 33.6094 917.458 33.6927 917.172 33.8594C916.891 34.0208 916.659 34.2448 916.477 34.5312C916.299 34.8125 916.167 35.1406 916.078 35.5156C915.995 35.8854 915.953 36.2812 915.953 36.7031ZM925.406 32.5469V41H923.953V32.5469H925.406ZM923.844 30.3047C923.844 30.0703 923.914 29.8724 924.055 29.7109C924.201 29.5495 924.414 29.4688 924.695 29.4688C924.971 29.4688 925.182 29.5495 925.328 29.7109C925.479 29.8724 925.555 30.0703 925.555 30.3047C925.555 30.5286 925.479 30.7214 925.328 30.8828C925.182 31.0391 924.971 31.1172 924.695 31.1172C924.414 31.1172 924.201 31.0391 924.055 30.8828C923.914 30.7214 923.844 30.5286 923.844 30.3047ZM929.172 34.3516V41H927.727V32.5469H929.094L929.172 34.3516ZM928.828 36.4531L928.227 36.4297C928.232 35.8516 928.318 35.3177 928.484 34.8281C928.651 34.3333 928.885 33.9036 929.188 33.5391C929.49 33.1745 929.849 32.8932 930.266 32.6953C930.688 32.4922 931.154 32.3906 931.664 32.3906C932.081 32.3906 932.456 32.4479 932.789 32.5625C933.122 32.6719 933.406 32.849 933.641 33.0938C933.88 33.3385 934.062 33.6562 934.188 34.0469C934.312 34.4323 934.375 34.9036 934.375 35.4609V41H932.922V35.4453C932.922 35.0026 932.857 34.6484 932.727 34.3828C932.596 34.112 932.406 33.9167 932.156 33.7969C931.906 33.6719 931.599 33.6094 931.234 33.6094C930.875 33.6094 930.547 33.6849 930.25 33.8359C929.958 33.987 929.706 34.1953 929.492 34.4609C929.284 34.7266 929.12 35.0312 929 35.375C928.885 35.7135 928.828 36.0729 928.828 36.4531Z" fill="#140175"/>
<rect x="972" y="16" width="108" height="40" rx="20" fill="#4C38FF"/>
<path d="M992.524 40.528H996.284V42H990.7V30.88H992.524V40.528ZM1005.89 37.376C1005.89 37.7067 1005.87 38.0053 1005.83 38.272H999.089C999.143 38.976 999.404 39.5413 999.873 39.968C1000.34 40.3947 1000.92 40.608 1001.6 40.608C1002.58 40.608 1003.28 40.1973 1003.68 39.376H1005.65C1005.38 40.1867 1004.9 40.8533 1004.19 41.376C1003.5 41.888 1002.64 42.144 1001.6 42.144C1000.76 42.144 1000 41.9573 999.329 41.584C998.668 41.2 998.145 40.6667 997.761 39.984C997.388 39.2907 997.201 38.4907 997.201 37.584C997.201 36.6773 997.383 35.8827 997.745 35.2C998.119 34.5067 998.636 33.9733 999.297 33.6C999.969 33.2267 1000.74 33.04 1001.6 33.04C1002.43 33.04 1003.17 33.2213 1003.83 33.584C1004.48 33.9467 1004.98 34.4587 1005.35 35.12C1005.71 35.7707 1005.89 36.5227 1005.89 37.376ZM1003.99 36.8C1003.97 36.128 1003.73 35.5893 1003.27 35.184C1002.8 34.7787 1002.21 34.576 1001.52 34.576C1000.89 34.576 1000.35 34.7787 999.905 35.184C999.457 35.5787 999.191 36.1173 999.105 36.8H1003.99ZM1009.81 34.672V39.552C1009.81 39.8827 1009.89 40.1227 1010.04 40.272C1010.2 40.4107 1010.46 40.48 1010.84 40.48H1011.96V42H1010.52C1009.7 42 1009.07 41.808 1008.63 41.424C1008.19 41.04 1007.97 40.416 1007.97 39.552V34.672H1006.93V33.184H1007.97V30.992H1009.81V33.184H1011.96V34.672H1009.81ZM1013.93 30.88H1015.91L1014.23 34.688H1012.95L1013.93 30.88ZM1020.71 42.144C1020.02 42.144 1019.4 42.0213 1018.84 41.776C1018.3 41.52 1017.86 41.1787 1017.54 40.752C1017.22 40.3147 1017.05 39.8293 1017.03 39.296H1018.92C1018.95 39.6693 1019.13 39.984 1019.45 40.24C1019.78 40.4853 1020.19 40.608 1020.68 40.608C1021.19 40.608 1021.59 40.512 1021.86 40.32C1022.15 40.1173 1022.3 39.8613 1022.3 39.552C1022.3 39.2213 1022.14 38.976 1021.82 38.816C1021.51 38.656 1021.01 38.48 1020.33 38.288C1019.67 38.1067 1019.13 37.9307 1018.71 37.76C1018.3 37.5893 1017.93 37.328 1017.62 36.976C1017.33 36.624 1017.18 36.16 1017.18 35.584C1017.18 35.1147 1017.32 34.688 1017.59 34.304C1017.87 33.9093 1018.26 33.6 1018.78 33.376C1019.3 33.152 1019.9 33.04 1020.57 33.04C1021.57 33.04 1022.38 33.296 1022.98 33.808C1023.6 34.3093 1023.93 34.9973 1023.98 35.872H1022.15C1022.12 35.4773 1021.96 35.1627 1021.67 34.928C1021.38 34.6933 1021 34.576 1020.5 34.576C1020.02 34.576 1019.66 34.6667 1019.4 34.848C1019.14 35.0293 1019.02 35.2693 1019.02 35.568C1019.02 35.8027 1019.1 36 1019.27 36.16C1019.44 36.32 1019.65 36.448 1019.9 36.544C1020.14 36.6293 1020.5 36.7413 1020.98 36.88C1021.62 37.0507 1022.15 37.2267 1022.55 37.408C1022.97 37.5787 1023.33 37.8347 1023.62 38.176C1023.92 38.5173 1024.08 38.9707 1024.09 39.536C1024.09 40.0373 1023.95 40.4853 1023.67 40.88C1023.4 41.2747 1023 41.584 1022.49 41.808C1021.99 42.032 1021.4 42.144 1020.71 42.144ZM1037.4 30.88V32.368H1034.44V42H1032.62V32.368H1029.64V30.88H1037.4ZM1038.64 37.552C1038.64 36.6667 1038.82 35.8827 1039.18 35.2C1039.56 34.5173 1040.06 33.9893 1040.69 33.616C1041.33 33.232 1042.03 33.04 1042.8 33.04C1043.49 33.04 1044.09 33.1787 1044.61 33.456C1045.13 33.7227 1045.55 34.0587 1045.85 34.464V33.184H1047.69V42H1045.85V40.688C1045.55 41.104 1045.12 41.4507 1044.59 41.728C1044.06 42.0053 1043.45 42.144 1042.77 42.144C1042.01 42.144 1041.32 41.952 1040.69 41.568C1040.06 41.1733 1039.56 40.6293 1039.18 39.936C1038.82 39.232 1038.64 38.4373 1038.64 37.552ZM1045.85 37.584C1045.85 36.976 1045.73 36.448 1045.47 36C1045.23 35.552 1044.9 35.2107 1044.49 34.976C1044.09 34.7413 1043.65 34.624 1043.18 34.624C1042.71 34.624 1042.28 34.7413 1041.87 34.976C1041.47 35.2 1041.13 35.536 1040.88 35.984C1040.63 36.4213 1040.51 36.944 1040.51 37.552C1040.51 38.16 1040.63 38.6933 1040.88 39.152C1041.13 39.6107 1041.47 39.9627 1041.87 40.208C1042.29 40.4427 1042.72 40.56 1043.18 40.56C1043.65 40.56 1044.09 40.4427 1044.49 40.208C1044.9 39.9733 1045.23 39.632 1045.47 39.184C1045.73 38.7253 1045.85 38.192 1045.85 37.584ZM1051.91 30.16V42H1050.09V30.16H1051.91ZM1057.8 37.6L1061.86 42H1059.4L1056.13 38.208V42H1054.31V30.16H1056.13V37.04L1059.33 33.184H1061.86L1057.8 37.6Z" fill="white"/>
</g>
<defs>
<filter id="filter0_i_123_9665" x="-2" y="0" width="1102" height="73" filterUnits="userSpaceOnUse" color-interpolation-filters="sRGB">
<feFlood flood-opacity="0" result="BackgroundImageFix"/>
<feBlend mode="normal" in="SourceGraphic" in2="BackgroundImageFix" result="shape"/>
<feColorMatrix in="SourceAlpha" type="matrix" values="0 0 0 0 0 0 0 0 0 0 0 0 0 0 0 0 0 0 127 0" result="hardAlpha"/>
<feOffset dx="-2" dy="1"/>
<feGaussianBlur stdDeviation="2"/>
<feComposite in2="hardAlpha" operator="arithmetic" k2="-1" k3="1"/>
<feColorMatrix type="matrix" values="0 0 0 0 1 0 0 0 0 1 0 0 0 0 1 0 0 0 0.25 0"/>
<feBlend mode="normal" in2="shape" result="effect1_innerShadow_123_9665"/>
</filter>
<linearGradient id="paint0_linear_123_9665" x1="47" y1="95.5" x2="1069" y2="-0.500004" gradientUnits="userSpaceOnUse">
<stop stop-color="#EFECEC"/>
<stop offset="0.5" stop-color="white"/>
<stop offset="1" stop-color="#E1E1E1"/>
</linearGradient>
</defs>
</svg>
