<svg width="569" height="524" viewBox="0 0 569 524" fill="none" xmlns="http://www.w3.org/2000/svg">
<rect x="569" y="524" width="569" height="524" rx="21" transform="rotate(-180 569 524)" fill="#EBF7FF"/>
<mask id="mask0_482_694" style="mask-type:alpha" maskUnits="userSpaceOnUse" x="7" y="66" width="555" height="393">
<rect x="7" y="66" width="555" height="393" fill="#D9D9D9"/>
</mask>
<g mask="url(#mask0_482_694)">
<ellipse cx="284.32" cy="255.954" rx="110.689" ry="69.237" transform="rotate(-16.7659 284.32 255.954)" fill="#00006E"/>
<path d="M233.116 86.942C307.822 64.4356 381.184 62.993 439.411 78.8791C497.631 94.763 540.796 127.999 554.928 174.906C569.059 221.812 551.437 273.362 511.681 318.763C471.919 364.171 409.969 403.492 335.263 425.999C260.557 448.505 187.195 449.949 128.967 434.063C70.7476 418.179 27.5819 384.942 13.4505 338.035C-0.680735 291.129 16.9415 239.579 56.6979 194.178C96.4599 148.771 158.41 109.448 233.116 86.942Z" stroke="#759EEC" stroke-opacity="0.7"/>
<path d="M264.204 189.182C293.546 180.342 322.374 179.771 345.272 186.018C368.161 192.263 385.201 205.35 390.784 223.881C396.366 242.412 389.392 262.733 373.761 280.583C358.125 298.439 333.779 313.887 304.437 322.726C275.095 331.566 246.267 332.138 223.37 325.891C200.48 319.646 183.441 306.559 177.858 288.028C172.275 269.497 179.25 249.176 194.88 231.326C210.516 213.47 234.862 198.022 264.204 189.182Z" stroke="#759EEC" stroke-opacity="0.7"/>
<path d="M253.233 154.304C298.427 140.689 342.818 139.812 378.061 149.428C413.297 159.041 439.466 179.17 448.036 207.617C456.606 236.063 445.911 267.297 421.85 294.775C397.783 322.258 360.296 346.049 315.101 359.665C269.907 373.28 225.517 374.157 190.273 364.541C155.038 354.928 128.869 334.8 120.299 306.353C111.729 277.907 122.423 246.672 146.485 219.194C170.551 191.711 208.039 167.92 253.233 154.304Z" stroke="#759EEC" stroke-opacity="0.7"/>
<path d="M243.073 120.948C302.726 102.977 361.309 101.823 407.813 114.511C454.309 127.196 488.804 153.746 500.099 191.236C511.393 228.726 497.305 269.913 465.554 306.172C433.798 342.436 384.327 373.837 324.675 391.808C265.023 409.779 206.439 410.933 159.935 398.245C113.439 385.56 78.943 359.01 67.6484 321.52C56.3539 284.03 70.4432 242.843 102.194 206.584C133.95 170.32 183.421 138.919 243.073 120.948Z" stroke="#759EEC" stroke-opacity="0.7"/>
<path d="M69.3789 232C80.0822 230.735 81.1136 229.704 82.3789 219C83.6442 229.704 84.6756 230.735 95.3789 232C84.6756 233.266 83.6442 234.297 82.3789 245C81.1136 234.297 80.0822 233.266 69.3789 232Z" fill="#0733BA"/>
<path d="M525.379 147C537.729 145.54 538.919 144.35 540.379 132C541.839 144.35 543.029 145.54 555.379 147C543.029 148.46 541.839 149.65 540.379 162C538.919 149.65 537.729 148.46 525.379 147Z" fill="#3D5EF6"/>
<path d="M325.706 256.814C325.675 256.584 325.622 256.271 325.57 255.853C325.56 255.738 325.549 255.665 325.539 255.634C324.505 248.784 319.284 243.103 312.548 241.495C311.473 241.234 310.387 241.088 309.301 241.046C308.852 239.782 308.257 238.571 307.546 237.433L307.348 237.109L307.317 237.088C307.317 237.088 307.296 237.057 307.285 237.046L327.502 217.613L329.778 215.42H312.987L312.621 215.775L298.023 229.914C297.323 229.726 296.864 229.664 296.801 229.664H296.77C294.389 229.152 291.81 229.047 289.836 229.382C287.507 229.768 285.116 230.551 283.122 231.554C282.714 231.261 282.203 230.875 281.868 230.624C281.054 230.019 280.751 229.799 280.574 229.684C279.352 228.953 278.088 228.348 276.825 227.878C274.277 226.938 271.551 226.51 268.742 226.604C263.375 226.781 258.394 228.546 254.321 231.721C250.05 235.041 246.949 239.908 245.1 246.194C239.942 247.311 235.775 250.141 232.998 254.412C230.001 259.038 228.654 264.552 229.217 269.951C229.771 275.255 232.1 280.216 235.786 283.944C239.649 287.849 244.693 290 249.988 290H314.24L319.66 289.979H319.754C320.683 289.917 321.612 289.791 322.511 289.593C330.05 287.974 336.128 281.573 336.963 274.378C337.871 266.578 333.078 259.195 325.695 256.835L325.706 256.814Z" fill="white" stroke="white" stroke-miterlimit="10"/>
<path d="M313.507 216.694L274.442 254.486L274.463 243.291H263.133V277.741L326.613 216.694H313.507Z" fill="#0000FF"/>
<path d="M253.766 254.976L254.247 252.376C255.249 246.852 257.578 241.129 262.862 238.467C268.396 235.678 275.194 237.151 279.455 241.537C279.601 241.693 279.758 241.85 279.904 242.007L281.846 244.137L282.441 244.805L282.473 244.774L282.995 233.256C282.702 233.151 280.113 231.146 279.789 230.948C278.672 230.28 277.502 229.716 276.291 229.267C273.889 228.379 271.33 228.003 268.772 228.087C263.854 228.254 259.113 229.862 255.218 232.89C250.56 236.514 247.783 241.86 246.269 247.468L253.62 255.885L253.787 254.976H253.766Z" fill="#8C00B8"/>
<path d="M249.976 279.61C246.331 279.61 243.063 277.49 241.256 274.368C239.878 271.966 239.377 269.116 239.575 266.359C239.711 264.406 240.202 262.464 241.173 260.762C243 257.556 246.112 256.198 249.684 256.021C249.798 256.021 249.913 256.01 250.018 256.01L252.252 255.937H252.733L253.589 255.885L246.237 247.468C241.225 248.335 236.985 250.935 234.208 255.217C231.441 259.488 230.125 264.709 230.657 269.784C231.702 279.767 239.586 288.497 249.955 288.497H313.101V279.61H249.976Z" fill="#00006E"/>
<path d="M296.612 231.136H296.581C294.534 230.687 292.059 230.499 290.065 230.844C287.558 231.262 285 232.149 283.037 233.277C283.037 233.277 283.016 233.277 283.006 233.277L282.483 244.795L296.623 231.147L296.612 231.136Z" fill="#B78200"/>
<path d="M308.204 242.518C307.765 241.004 307.118 239.553 306.272 238.216L306.23 238.195C305.071 239.302 303.902 240.409 302.743 241.516C301.677 242.529 300.612 243.542 299.558 244.555C299.923 245.39 300.038 246.309 300.111 247.217C300.236 248.773 300.153 253.66 300.153 253.66L308.256 242.518C308.256 242.518 308.214 242.518 308.194 242.518H308.204Z" fill="#B78200"/>
<path d="M324.452 258.005C324.452 258.005 324.452 258.005 324.441 257.994L313.08 266.129C313.08 266.129 313.08 266.129 313.08 266.14L314.96 266.16C318.04 266.192 322.061 265.722 324.65 267.748C326.76 269.408 327.261 272.635 326.112 275.057C324.911 277.584 322.092 279.433 319.304 279.621C319.116 279.621 317.664 279.621 316.359 279.621H315.022H314.239H313.132V288.507H316.359L319.607 288.486H319.659C320.505 288.434 321.361 288.319 322.196 288.142C328.859 286.711 334.686 281.104 335.49 274.201C336.346 266.839 331.615 259.874 324.462 258.015L324.452 258.005Z" fill="#006130"/>
<path d="M324.056 255.853C323.116 249.609 318.365 244.408 312.193 242.936C310.909 242.633 309.593 242.487 308.277 242.518L300.174 253.66C300.278 253.629 301.876 253.128 301.886 253.128C304.695 252.25 307.703 250.914 310.679 251.781C313.122 252.491 314.992 254.798 315.347 257.294C315.775 260.322 314.135 263.382 313.091 266.118L324.453 257.983C324.306 257.827 324.098 256.02 324.077 255.853H324.056Z" fill="#AB0014"/>
<path d="M79.7188 361.34C99.0487 361.34 114.719 345.67 114.719 326.34C114.719 307.01 99.0487 291.34 79.7188 291.34C60.3888 291.34 44.7188 307.01 44.7188 326.34C44.7188 345.67 60.3888 361.34 79.7188 361.34Z" fill="url(#paint0_linear_482_694)"/>
<path d="M68.0373 324.883H91.3997C92.0973 324.883 92.5624 325.606 92.2717 326.242L81.1719 350.52C80.8376 351.25 79.8057 351.272 79.4424 350.553L67.1799 326.275C66.8565 325.635 67.3216 324.883 68.0373 324.883Z" fill="white"/>
<path d="M94.1611 325.018L98.1723 326.013C98.79 326.166 99.0916 326.867 98.7755 327.419L95.2729 333.556C94.8042 334.381 93.5507 334.094 93.4817 333.149L92.9694 326.017C92.9222 325.366 93.5253 324.858 94.1575 325.018H94.1611Z" fill="white"/>
<path d="M61.9258 323.608L65.937 324.603C66.5547 324.756 66.8562 325.457 66.5401 326.009L63.0376 332.146C62.5689 332.971 61.3154 332.684 61.2464 331.739L60.734 324.607C60.6868 323.957 61.2899 323.448 61.9222 323.608H61.9258Z" fill="white"/>
<path d="M81.9535 351.003L83.6212 347.221C83.8792 346.64 84.6204 346.462 85.1109 346.869L90.5573 351.37C91.2876 351.973 90.7935 353.162 89.8488 353.067L82.7347 352.348C82.0843 352.282 81.6883 351.603 81.9535 351.003Z" fill="white"/>
<path d="M74.9995 307.617L87.5599 311.505C88.2285 311.712 88.4574 312.541 87.9923 313.06L78.2004 324.033C77.67 324.629 76.6853 324.353 76.54 323.568L73.7714 308.707C73.6406 307.999 74.3091 307.399 74.9995 307.614V307.617Z" fill="white"/>
<path d="M74.5227 302.171L76.2813 302.742C77.186 303.036 77.4803 304.166 76.8372 304.863L75.4383 306.386C74.7044 307.185 73.3746 306.793 73.1929 305.725L72.8332 303.628C72.6661 302.662 73.5889 301.862 74.5227 302.168V302.171Z" fill="white"/>
<path d="M104.739 326.99L105.306 328.52L106.835 329.087L105.306 329.653L104.739 331.187L104.172 329.653L102.639 329.087L104.172 328.52L104.739 326.99Z" fill="white"/>
<path d="M95.5786 314.902L96.1454 316.432L97.675 316.999L96.1454 317.566L95.5786 319.099L95.0118 317.566L93.4785 316.999L95.0118 316.432L95.5786 314.902Z" fill="white"/>
<path d="M89.2922 300.315L89.641 301.263L90.5893 301.612L89.641 301.964L89.2922 302.909L88.9398 301.964L87.9951 301.612L88.9398 301.263L89.2922 300.315Z" fill="white"/>
<path d="M60.1605 304.377L60.8727 306.299L62.7947 307.011L60.8727 307.723L60.1605 309.645L59.4484 307.723L57.5264 307.011L59.4484 306.299L60.1605 304.377Z" fill="white"/>
<path d="M52.5892 324.978L53.6029 327.717L56.3388 328.731L53.6029 329.745L52.5892 332.484L51.5755 329.745L48.8359 328.731L51.5755 327.717L52.5892 324.978Z" fill="white"/>
<path d="M79.7187 291.751C98.7902 291.751 114.308 307.265 114.308 326.34C114.308 345.415 98.7938 360.93 79.7187 360.93C60.6437 360.93 45.1293 345.412 45.1293 326.34C45.1293 307.269 60.6473 291.751 79.7187 291.751ZM79.7187 291.34C60.3894 291.34 44.7188 307.011 44.7188 326.34C44.7188 345.669 60.3894 361.34 79.7187 361.34C99.0481 361.34 114.719 345.669 114.719 326.34C114.719 307.011 99.0481 291.34 79.7187 291.34Z" fill="url(#paint1_linear_482_694)"/>
<circle cx="300.379" cy="421" r="35" fill="#5082E3"/>
<circle cx="516.379" cy="317" r="35" fill="#8CB0F0"/>
<circle cx="137.379" cy="123" r="35" fill="#4379E3"/>
<path d="M146.148 132.678C145.476 133.216 144.011 134.076 141.632 133.78C139.348 133.511 135.772 132.087 131.7 126.845C125.114 118.35 127.359 112.907 129.469 111.213C130.396 110.474 131.216 110.125 131.848 110.205C132.399 110.273 132.789 110.662 133.03 111.388L134.522 115.931C134.711 116.496 134.59 116.832 134.065 117.154L132.963 117.92C132.076 118.552 131.928 119.426 132.533 120.541C132.842 121.119 133.702 122.638 134.952 124.237C136.189 125.837 137.439 127.033 137.923 127.476C138.864 128.337 139.737 128.39 140.53 127.651L141.538 126.737C141.888 126.388 142.143 126.374 142.304 126.388C142.452 126.401 142.627 126.468 142.802 126.589L146.807 129.13C147.358 129.479 147.64 129.882 147.667 130.353C147.708 131.038 147.157 131.872 146.135 132.691L146.148 132.678Z" stroke="white" stroke-width="1.5" stroke-miterlimit="10" stroke-linecap="round"/>
<path d="M120.274 137.745L119.71 142.248L128.03 140.46C130.96 142.073 134.32 143 137.908 143C149.212 143 158.378 133.834 158.378 122.53C158.378 111.227 149.212 102.06 137.908 102.06C126.605 102.06 117.438 111.227 117.438 122.53C117.438 126.657 118.675 130.501 120.785 133.713L120.288 137.745H120.274Z" stroke="white" stroke-width="1.5" stroke-linecap="round" stroke-linejoin="round"/>
<circle cx="439.379" cy="123" r="35" fill="#0733BA"/>
<path d="M420.414 109.14H457.414V137.14H420.414V112.093L438.908 124.547L455.355 111.701" stroke="white" stroke-width="1.5" stroke-linecap="round" stroke-linejoin="round"/>
<path d="M303.889 426.82H295.829V410.65H316.929V431.28L312.589 426.82H308.839C307.549 426.82 306.509 427.86 306.509 429.15V440.26C306.509 441.35 305.619 442.24 304.529 442.24H288.029C287.119 442.24 286.379 441.5 286.379 440.59V404.96C286.379 403.88 287.259 403 288.339 403H304.519C305.619 403 306.519 403.89 306.519 405V408.04" stroke="white" stroke-width="1.5" stroke-linecap="round" stroke-linejoin="round"/>
<path d="M500.449 305.28H528.949V296H497.379V327.57H519.489C519.979 327.57 520.369 327.18 520.369 326.69V312.03C520.369 311.26 520.989 310.64 521.759 310.64H533.249C534.029 310.64 534.669 311.27 534.669 312.06V337.1C534.669 337.88 534.039 338.5 533.269 338.5H521.769C520.999 338.5 520.379 337.88 520.379 337.11V329.65" stroke="white" stroke-width="1.5" stroke-linecap="round" stroke-linejoin="round"/>
<path d="M501.779 301.57C502.287 301.57 502.699 301.158 502.699 300.65C502.699 300.142 502.287 299.73 501.779 299.73C501.271 299.73 500.859 300.142 500.859 300.65C500.859 301.158 501.271 301.57 501.779 301.57Z" stroke="white" stroke-width="1.5" stroke-linecap="round" stroke-linejoin="round"/>
<path d="M505.56 301.57C506.068 301.57 506.48 301.158 506.48 300.65C506.48 300.142 506.068 299.73 505.56 299.73C505.052 299.73 504.64 300.142 504.64 300.65C504.64 301.158 505.052 301.57 505.56 301.57Z" stroke="white" stroke-width="1.5" stroke-linecap="round" stroke-linejoin="round"/>
<path d="M509.329 301.57C509.837 301.57 510.249 301.158 510.249 300.65C510.249 300.142 509.837 299.73 509.329 299.73C508.821 299.73 508.409 300.142 508.409 300.65C508.409 301.158 508.821 301.57 509.329 301.57Z" stroke="white" stroke-width="1.5" stroke-linecap="round" stroke-linejoin="round"/>
<path d="M525.849 326.45H523.709M524.779 324.89L525.179 322.77L525.309 322.04C525.509 320.9 526.239 319.96 527.409 319.96C528.579 319.96 529.309 320.9 529.509 322.04L529.939 324.45C530.059 325.12 530.439 325.43 530.719 325.62C530.859 325.71 530.959 325.78 531.019 325.85C531.079 325.92 531.109 325.98 531.109 326.15V326.45H529.029" stroke="white" stroke-width="1.5" stroke-linecap="round" stroke-linejoin="round"/>
<path d="M526.039 326.45C526.039 327.21 526.649 327.82 527.409 327.82C528.169 327.82 528.779 327.21 528.779 326.45" stroke="white" stroke-width="1.5" stroke-linecap="round" stroke-linejoin="round"/>
<path d="M502.029 310.08V319.03H515.289V312.14H504.599L502.029 310.08Z" stroke="white" stroke-width="1.5" stroke-linecap="round" stroke-linejoin="round"/>
<circle cx="403.879" cy="356.5" r="6.5" fill="#5082E3"/>
<circle cx="239.879" cy="157.5" r="6.5" fill="#85AFFB"/>
</g>
<defs>
<linearGradient id="paint0_linear_482_694" x1="55.4516" y1="350.607" x2="103.165" y2="302.894" gradientUnits="userSpaceOnUse">
<stop stop-color="#3A65F6"/>
<stop offset="1" stop-color="#4C3BF4"/>
</linearGradient>
<linearGradient id="paint1_linear_482_694" x1="44.7188" y1="326.34" x2="114.719" y2="326.34" gradientUnits="userSpaceOnUse">
<stop stop-color="#3A65F6"/>
<stop offset="1" stop-color="#4C3BF4"/>
</linearGradient>
</defs>
</svg>
